<svg width="65" height="65" viewBox="0 0 65 65" fill="none" xmlns="http://www.w3.org/2000/svg">
<rect width="65" height="65" rx="8" fill="url(#paint0_linear_106_591)"/>
<path d="M32.4998 18.1178C28.1656 18.1003 24.0009 19.7303 20.9189 22.6505C17.8369 25.5708 16.0891 29.5429 16.0586 33.6961C16.0556 35.7443 16.4794 37.7725 17.3052 39.6616C18.131 41.5508 19.3422 43.263 20.8676 44.6977C21.5139 45.3061 22.3836 45.6471 23.2896 45.6471C24.1956 45.6471 25.0653 45.3061 25.7115 44.6977C26.0295 44.3978 26.2821 44.0403 26.4544 43.646C26.6268 43.2517 26.7156 42.8285 26.7156 42.401C26.7156 41.9735 26.6268 41.5503 26.4544 41.156C26.2821 40.7617 26.0295 40.4042 25.7115 40.1043C24.8222 39.2663 24.116 38.267 23.6338 37.1647C23.1517 36.0624 22.9034 34.8792 22.9034 33.684C22.9034 32.4888 23.1517 31.3056 23.6338 30.2033C24.116 29.101 24.8222 28.1017 25.7115 27.2637C27.5191 25.5597 29.9531 24.6048 32.4886 24.6048C35.0242 24.6048 37.4582 25.5597 39.2657 27.2637C40.155 28.1017 40.8613 29.101 41.3434 30.2033C41.8256 31.3056 42.0739 32.4888 42.0739 33.684C42.0739 34.8792 41.8256 36.0624 41.3434 37.1647C40.8613 38.267 40.155 39.2663 39.2657 40.1043C38.9478 40.4042 38.6952 40.7617 38.5228 41.156C38.3505 41.5503 38.2617 41.9735 38.2617 42.401C38.2617 42.8285 38.3505 43.2517 38.5228 43.646C38.6952 44.0403 38.9478 44.3978 39.2657 44.6977C39.912 45.3061 40.7817 45.6471 41.6877 45.6471C42.5937 45.6471 43.4634 45.3061 44.1096 44.6977C45.6391 43.2648 46.8544 41.5534 47.684 39.6641C48.5137 37.7749 48.941 35.7458 48.9409 33.6961C48.9105 29.5429 47.1626 25.5708 44.0806 22.6505C40.9986 19.7303 36.834 18.1003 32.4998 18.1178Z" fill="white"/>
<defs>
<linearGradient id="paint0_linear_106_591" x1="0.654511" y1="19.8171" x2="67.804" y2="32.2909" gradientUnits="userSpaceOnUse">
<stop stop-color="#00A5F0"/>
<stop offset="1" stop-color="#00D7D7"/>
</linearGradient>
</defs>
</svg>
