<svg width="137" height="35" viewBox="0 0 137 35" fill="none" xmlns="http://www.w3.org/2000/svg">
<g filter="url(#filter0_d_10416_207)">
<mask id="path-1-inside-1_10416_207" fill="white">
<path fill-rule="evenodd" clip-rule="evenodd" d="M64.4046 8.0675C64.7118 7.77391 64.9531 7.42642 65.1144 7.04525C65.2757 6.66408 65.3539 6.25687 65.3442 5.84734C65.3346 5.43782 65.2374 5.03417 65.0584 4.65991C64.8793 4.28566 64.622 3.94828 64.3013 3.66745C62.2728 1.87938 59.728 0.67975 56.978 0.215274C54.228 -0.249202 51.392 0.0416065 48.817 1.05214C46.2419 2.06267 44.0393 3.74911 42.4785 5.90524C40.9178 8.06136 40.0665 10.5937 40.0288 13.1926C40.0665 15.7915 40.9178 18.3238 42.4785 20.4799C44.0393 22.636 46.2419 24.3225 48.817 25.333C51.392 26.3435 54.228 26.6344 56.978 26.1699C59.728 25.7054 62.2728 24.5058 64.3013 22.7177C64.622 22.4369 64.8793 22.0995 65.0584 21.7252C65.2374 21.351 65.3346 20.9473 65.3442 20.5378C65.3539 20.1283 65.2757 19.7211 65.1144 19.3399C64.9531 18.9587 64.7118 18.6112 64.4046 18.3177C63.7799 17.7218 62.9284 17.3781 62.0337 17.3604C61.139 17.3428 60.2727 17.6527 59.6213 18.2234C58.1764 19.4913 56.2572 20.186 54.2708 20.1603C52.2843 20.1346 50.3867 19.3904 48.9803 18.0855C48.2883 17.4435 47.7393 16.6808 47.3647 15.8412C46.9901 15.0016 46.7972 14.1016 46.7972 13.1926C46.7972 12.2836 46.9901 11.3835 47.3647 10.5439C47.7393 9.70432 48.2883 8.94168 48.9803 8.29969C50.3867 6.99481 52.2843 6.2506 54.2708 6.22485C56.2572 6.19911 58.1764 6.89386 59.6213 8.1618C60.2727 8.73257 61.1391 9.04246 62.0339 9.02466C62.9287 9.00685 63.7801 8.66277 64.4046 8.06661V8.0675ZM82.8718 0.000150724C79.089 -0.0159525 75.4537 1.36391 72.7635 3.83704C70.0733 6.31017 68.5479 9.67461 68.5219 13.1923C68.5219 16.7314 70.0337 20.1256 72.7248 22.6281C75.416 25.1306 79.0659 26.5365 82.8718 26.5365C86.6776 26.5365 90.3275 25.1306 93.0187 22.6281C95.7098 20.1256 97.2217 16.7314 97.2217 13.1923C97.1957 9.67461 95.6702 6.31017 92.98 3.83704C90.2898 1.36391 86.6546 -0.0159525 82.8718 0.000150724ZM82.8718 20.1598C81.3934 20.1441 79.953 19.7222 78.7319 18.947C77.5109 18.1719 76.5637 17.0781 76.0096 15.8035C75.4554 14.5288 75.3192 13.1302 75.6179 11.7837C75.9167 10.4372 76.6372 9.20299 77.6886 8.23639C78.74 7.26979 80.0753 6.614 81.5266 6.35158C82.9779 6.08916 84.4802 6.23183 85.8445 6.76163C87.2088 7.29144 88.3741 8.18469 89.1937 9.32897C90.0133 10.4733 90.4505 11.8174 90.4505 13.1923C90.4448 14.1125 90.2443 15.0227 89.8604 15.8709C89.4764 16.7191 88.9166 17.4887 88.2129 18.1356C87.5091 18.7826 86.6752 19.2944 85.7588 19.6417C84.8424 19.989 83.8614 20.165 82.8718 20.1598ZM116.457 0.00224765C112.177 -0.0143357 108.064 1.54782 105.021 4.34626C101.978 7.1447 100.252 10.9511 100.222 14.9309C100.219 16.8941 100.638 18.838 101.453 20.6488C102.269 22.4595 103.465 24.1005 104.972 25.4755C105.61 26.0586 106.469 26.3853 107.364 26.3853C108.258 26.3853 109.117 26.0586 109.755 25.4755C110.069 25.1882 110.319 24.8456 110.489 24.4677C110.659 24.0899 110.747 23.6843 110.747 23.2746C110.747 22.8649 110.659 22.4594 110.489 22.0815C110.319 21.7036 110.069 21.3611 109.755 21.0737C108.877 20.2706 108.18 19.3131 107.704 18.2568C107.228 17.2006 106.983 16.0668 106.983 14.9216C106.983 13.7763 107.228 12.6425 107.704 11.5863C108.18 10.5301 108.877 9.57249 109.755 8.76942C111.54 7.13657 113.943 6.22147 116.447 6.22147C118.951 6.22147 121.354 7.13657 123.139 8.76942C124.017 9.57249 124.714 10.5301 125.19 11.5863C125.666 12.6425 125.911 13.7763 125.911 14.9216C125.911 16.0668 125.666 17.2006 125.19 18.2568C124.714 19.3131 124.017 20.2706 123.139 21.0737C122.825 21.361 122.576 21.7035 122.405 22.0813C122.235 22.4591 122.148 22.8646 122.148 23.2742C122.148 23.6838 122.235 24.0893 122.405 24.4671C122.576 24.8449 122.825 25.1874 123.139 25.4746C123.777 26.0577 124.636 26.3844 125.531 26.3844C126.425 26.3844 127.284 26.0577 127.922 25.4746C129.433 24.1014 130.633 22.4612 131.452 20.6506C132.271 18.8399 132.693 16.8953 132.693 14.9309C132.663 10.9508 130.937 7.14412 127.893 4.34563C124.85 1.54714 120.737 -0.014808 116.457 0.00224765ZM8.79953 4.34596C11.843 1.54749 15.9555 -0.0145642 20.2355 0.00225531C24.5155 -0.0145642 28.6281 1.54749 31.6715 4.34596C34.715 7.14442 36.4409 10.9509 36.471 14.9309C36.4711 16.8952 36.0491 18.8396 35.2299 20.6501C34.4106 22.4606 33.2105 24.1006 31.7002 25.4738C31.062 26.0569 30.2032 26.3836 29.3085 26.3836C28.4139 26.3836 27.555 26.0569 26.9169 25.4738C26.6028 25.1864 26.3535 24.8438 26.1832 24.466C26.013 24.0881 25.9254 23.6825 25.9254 23.2729C25.9254 22.8632 26.013 22.4576 26.1832 22.0797C26.3535 21.7019 26.6028 21.3593 26.9169 21.0719C27.795 20.2689 28.4925 19.3112 28.9686 18.2549C29.4447 17.1986 29.6898 16.0647 29.6898 14.9194C29.6898 13.774 29.4447 12.6401 28.9686 11.5838C28.4925 10.5275 27.795 9.56985 26.9169 8.76676C25.1319 7.13386 22.7284 6.21873 20.2245 6.21873C17.7207 6.21873 15.3171 7.13386 13.5322 8.76676C12.654 9.56985 11.9566 10.5275 11.4805 11.5838C11.0044 12.6401 10.7592 13.774 10.7592 14.9194C10.7592 16.0647 11.0044 17.1986 11.4805 18.2549C11.9566 19.3112 12.654 20.2689 13.5322 21.0719C13.8462 21.3593 14.0956 21.7019 14.2658 22.0797C14.436 22.4576 14.5237 22.8632 14.5237 23.2729C14.5237 23.6825 14.436 24.0881 14.2658 24.466C14.0956 24.8438 13.8462 25.1864 13.5322 25.4738C12.8941 26.0569 12.0352 26.3836 11.1405 26.3836C10.2459 26.3836 9.38703 26.0569 8.74889 25.4738C7.24251 24.0989 6.04652 22.4581 5.23105 20.6477C4.41558 18.8373 3.99706 16.8937 4.00002 14.9309C4.03011 10.9509 5.75609 7.14442 8.79953 4.34596ZM57.7598 13.1764C57.7701 14.894 56.2639 16.2942 54.3957 16.3039C52.5274 16.3135 51.0047 14.9288 50.9945 13.2112C50.9842 11.4936 52.4904 10.0934 54.3586 10.0837C56.2269 10.0741 57.7496 11.4588 57.7598 13.1764Z"/>
</mask>
<path fill-rule="evenodd" clip-rule="evenodd" d="M64.4046 8.0675C64.7118 7.77391 64.9531 7.42642 65.1144 7.04525C65.2757 6.66408 65.3539 6.25687 65.3442 5.84734C65.3346 5.43782 65.2374 5.03417 65.0584 4.65991C64.8793 4.28566 64.622 3.94828 64.3013 3.66745C62.2728 1.87938 59.728 0.67975 56.978 0.215274C54.228 -0.249202 51.392 0.0416065 48.817 1.05214C46.2419 2.06267 44.0393 3.74911 42.4785 5.90524C40.9178 8.06136 40.0665 10.5937 40.0288 13.1926C40.0665 15.7915 40.9178 18.3238 42.4785 20.4799C44.0393 22.636 46.2419 24.3225 48.817 25.333C51.392 26.3435 54.228 26.6344 56.978 26.1699C59.728 25.7054 62.2728 24.5058 64.3013 22.7177C64.622 22.4369 64.8793 22.0995 65.0584 21.7252C65.2374 21.351 65.3346 20.9473 65.3442 20.5378C65.3539 20.1283 65.2757 19.7211 65.1144 19.3399C64.9531 18.9587 64.7118 18.6112 64.4046 18.3177C63.7799 17.7218 62.9284 17.3781 62.0337 17.3604C61.139 17.3428 60.2727 17.6527 59.6213 18.2234C58.1764 19.4913 56.2572 20.186 54.2708 20.1603C52.2843 20.1346 50.3867 19.3904 48.9803 18.0855C48.2883 17.4435 47.7393 16.6808 47.3647 15.8412C46.9901 15.0016 46.7972 14.1016 46.7972 13.1926C46.7972 12.2836 46.9901 11.3835 47.3647 10.5439C47.7393 9.70432 48.2883 8.94168 48.9803 8.29969C50.3867 6.99481 52.2843 6.2506 54.2708 6.22485C56.2572 6.19911 58.1764 6.89386 59.6213 8.1618C60.2727 8.73257 61.1391 9.04246 62.0339 9.02466C62.9287 9.00685 63.7801 8.66277 64.4046 8.06661V8.0675ZM82.8718 0.000150724C79.089 -0.0159525 75.4537 1.36391 72.7635 3.83704C70.0733 6.31017 68.5479 9.67461 68.5219 13.1923C68.5219 16.7314 70.0337 20.1256 72.7248 22.6281C75.416 25.1306 79.0659 26.5365 82.8718 26.5365C86.6776 26.5365 90.3275 25.1306 93.0187 22.6281C95.7098 20.1256 97.2217 16.7314 97.2217 13.1923C97.1957 9.67461 95.6702 6.31017 92.98 3.83704C90.2898 1.36391 86.6546 -0.0159525 82.8718 0.000150724ZM82.8718 20.1598C81.3934 20.1441 79.953 19.7222 78.7319 18.947C77.5109 18.1719 76.5637 17.0781 76.0096 15.8035C75.4554 14.5288 75.3192 13.1302 75.6179 11.7837C75.9167 10.4372 76.6372 9.20299 77.6886 8.23639C78.74 7.26979 80.0753 6.614 81.5266 6.35158C82.9779 6.08916 84.4802 6.23183 85.8445 6.76163C87.2088 7.29144 88.3741 8.18469 89.1937 9.32897C90.0133 10.4733 90.4505 11.8174 90.4505 13.1923C90.4448 14.1125 90.2443 15.0227 89.8604 15.8709C89.4764 16.7191 88.9166 17.4887 88.2129 18.1356C87.5091 18.7826 86.6752 19.2944 85.7588 19.6417C84.8424 19.989 83.8614 20.165 82.8718 20.1598ZM116.457 0.00224765C112.177 -0.0143357 108.064 1.54782 105.021 4.34626C101.978 7.1447 100.252 10.9511 100.222 14.9309C100.219 16.8941 100.638 18.838 101.453 20.6488C102.269 22.4595 103.465 24.1005 104.972 25.4755C105.61 26.0586 106.469 26.3853 107.364 26.3853C108.258 26.3853 109.117 26.0586 109.755 25.4755C110.069 25.1882 110.319 24.8456 110.489 24.4677C110.659 24.0899 110.747 23.6843 110.747 23.2746C110.747 22.8649 110.659 22.4594 110.489 22.0815C110.319 21.7036 110.069 21.3611 109.755 21.0737C108.877 20.2706 108.18 19.3131 107.704 18.2568C107.228 17.2006 106.983 16.0668 106.983 14.9216C106.983 13.7763 107.228 12.6425 107.704 11.5863C108.18 10.5301 108.877 9.57249 109.755 8.76942C111.54 7.13657 113.943 6.22147 116.447 6.22147C118.951 6.22147 121.354 7.13657 123.139 8.76942C124.017 9.57249 124.714 10.5301 125.19 11.5863C125.666 12.6425 125.911 13.7763 125.911 14.9216C125.911 16.0668 125.666 17.2006 125.19 18.2568C124.714 19.3131 124.017 20.2706 123.139 21.0737C122.825 21.361 122.576 21.7035 122.405 22.0813C122.235 22.4591 122.148 22.8646 122.148 23.2742C122.148 23.6838 122.235 24.0893 122.405 24.4671C122.576 24.8449 122.825 25.1874 123.139 25.4746C123.777 26.0577 124.636 26.3844 125.531 26.3844C126.425 26.3844 127.284 26.0577 127.922 25.4746C129.433 24.1014 130.633 22.4612 131.452 20.6506C132.271 18.8399 132.693 16.8953 132.693 14.9309C132.663 10.9508 130.937 7.14412 127.893 4.34563C124.85 1.54714 120.737 -0.014808 116.457 0.00224765ZM8.79953 4.34596C11.843 1.54749 15.9555 -0.0145642 20.2355 0.00225531C24.5155 -0.0145642 28.6281 1.54749 31.6715 4.34596C34.715 7.14442 36.4409 10.9509 36.471 14.9309C36.4711 16.8952 36.0491 18.8396 35.2299 20.6501C34.4106 22.4606 33.2105 24.1006 31.7002 25.4738C31.062 26.0569 30.2032 26.3836 29.3085 26.3836C28.4139 26.3836 27.555 26.0569 26.9169 25.4738C26.6028 25.1864 26.3535 24.8438 26.1832 24.466C26.013 24.0881 25.9254 23.6825 25.9254 23.2729C25.9254 22.8632 26.013 22.4576 26.1832 22.0797C26.3535 21.7019 26.6028 21.3593 26.9169 21.0719C27.795 20.2689 28.4925 19.3112 28.9686 18.2549C29.4447 17.1986 29.6898 16.0647 29.6898 14.9194C29.6898 13.774 29.4447 12.6401 28.9686 11.5838C28.4925 10.5275 27.795 9.56985 26.9169 8.76676C25.1319 7.13386 22.7284 6.21873 20.2245 6.21873C17.7207 6.21873 15.3171 7.13386 13.5322 8.76676C12.654 9.56985 11.9566 10.5275 11.4805 11.5838C11.0044 12.6401 10.7592 13.774 10.7592 14.9194C10.7592 16.0647 11.0044 17.1986 11.4805 18.2549C11.9566 19.3112 12.654 20.2689 13.5322 21.0719C13.8462 21.3593 14.0956 21.7019 14.2658 22.0797C14.436 22.4576 14.5237 22.8632 14.5237 23.2729C14.5237 23.6825 14.436 24.0881 14.2658 24.466C14.0956 24.8438 13.8462 25.1864 13.5322 25.4738C12.8941 26.0569 12.0352 26.3836 11.1405 26.3836C10.2459 26.3836 9.38703 26.0569 8.74889 25.4738C7.24251 24.0989 6.04652 22.4581 5.23105 20.6477C4.41558 18.8373 3.99706 16.8937 4.00002 14.9309C4.03011 10.9509 5.75609 7.14442 8.79953 4.34596ZM57.7598 13.1764C57.7701 14.894 56.2639 16.2942 54.3957 16.3039C52.5274 16.3135 51.0047 14.9288 50.9945 13.2112C50.9842 11.4936 52.4904 10.0934 54.3586 10.0837C56.2269 10.0741 57.7496 11.4588 57.7598 13.1764Z" fill="white"/>
<path d="M65.1144 7.04525L66.0353 7.43501L66.0353 7.435L65.1144 7.04525ZM64.4046 8.0675H63.4046V10.4064L65.0955 8.79043L64.4046 8.0675ZM65.3442 5.84734L64.3445 5.87081L64.3445 5.87082L65.3442 5.84734ZM65.0584 4.65991L65.9605 4.22833L65.9605 4.22833L65.0584 4.65991ZM64.3013 3.66745L63.64 4.41762L63.6425 4.41974L64.3013 3.66745ZM56.978 0.215274L56.8114 1.20131L56.8114 1.20131L56.978 0.215274ZM48.817 1.05214L48.4517 0.121248L48.4517 0.121248L48.817 1.05214ZM42.4785 5.90524L41.6685 5.31887L41.6685 5.31887L42.4785 5.90524ZM40.0288 13.1926L39.0289 13.1781L39.0287 13.1926L39.0289 13.2071L40.0288 13.1926ZM42.4785 20.4799L41.6685 21.0663L41.6685 21.0663L42.4785 20.4799ZM48.817 25.333L48.4517 26.2639L48.4517 26.2639L48.817 25.333ZM56.978 26.1699L56.8114 25.1838L56.8114 25.1838L56.978 26.1699ZM64.3013 22.7177L63.6425 21.9654L63.6401 21.9675L64.3013 22.7177ZM65.3442 20.5378L64.3445 20.5143L64.3445 20.5143L65.3442 20.5378ZM65.1144 19.3399L66.0353 18.9502L66.0353 18.9502L65.1144 19.3399ZM64.4046 18.3177L65.0955 17.5947L65.0948 17.594L64.4046 18.3177ZM62.0337 17.3604L62.014 18.3602L62.014 18.3602L62.0337 17.3604ZM59.6213 18.2234L58.9623 17.4712L58.9617 17.4717L59.6213 18.2234ZM48.9803 18.0855L49.6605 17.3524L49.6604 17.3524L48.9803 18.0855ZM48.9803 8.29969L49.6604 9.03279L49.6605 9.03274L48.9803 8.29969ZM54.2708 6.22485L54.2578 5.22494L54.2578 5.22494L54.2708 6.22485ZM59.6213 8.1618L58.9617 8.91343L58.9623 8.91389L59.6213 8.1618ZM62.0339 9.02466L62.014 8.02486L62.014 8.02486L62.0339 9.02466ZM64.4046 8.06661H65.4046V5.72946L63.7141 7.34328L64.4046 8.06661ZM72.7635 3.83704L72.0867 3.10086L72.0867 3.10086L72.7635 3.83704ZM82.8718 0.000150724L82.8675 1.00018L82.876 1.00014L82.8718 0.000150724ZM68.5219 13.1923L67.5219 13.1849V13.1923H68.5219ZM72.7248 22.6281L73.4058 21.8958L73.4058 21.8958L72.7248 22.6281ZM93.0187 22.6281L92.3377 21.8958L92.3377 21.8958L93.0187 22.6281ZM97.2217 13.1923L98.2217 13.1923L98.2217 13.1849L97.2217 13.1923ZM92.98 3.83704L92.3032 4.57322L92.3032 4.57322L92.98 3.83704ZM78.7319 18.947L78.196 19.7913L78.196 19.7913L78.7319 18.947ZM82.8718 20.1598L82.8612 21.1597L82.8665 21.1597L82.8718 20.1598ZM76.0096 15.8035L76.9266 15.4048L76.9266 15.4048L76.0096 15.8035ZM75.6179 11.7837L74.6417 11.5671L74.6417 11.5671L75.6179 11.7837ZM77.6886 8.23639L78.3654 8.97256L78.3654 8.97256L77.6886 8.23639ZM85.8445 6.76163L86.2065 5.82946L86.2065 5.82946L85.8445 6.76163ZM89.1937 9.32897L88.3807 9.91126L88.3807 9.91127L89.1937 9.32897ZM90.4505 13.1923L91.4505 13.1984L91.4505 13.1923L90.4505 13.1923ZM89.8604 15.8709L90.7714 16.2833L90.7714 16.2833L89.8604 15.8709ZM85.7588 19.6417L86.1132 20.5768L86.1132 20.5768L85.7588 19.6417ZM105.021 4.34626L105.698 5.08236L105.698 5.08236L105.021 4.34626ZM116.457 0.00224765L116.453 1.00227L116.461 1.00224L116.457 0.00224765ZM100.222 14.9309L99.2222 14.9233L99.2222 14.9293L100.222 14.9309ZM101.453 20.6488L100.542 21.0595L100.542 21.0595L101.453 20.6488ZM104.972 25.4755L105.647 24.7373L105.646 24.7369L104.972 25.4755ZM109.755 25.4755L110.43 26.2138L110.43 26.2133L109.755 25.4755ZM110.489 24.4677L111.401 24.8785L111.401 24.8785L110.489 24.4677ZM110.489 22.0815L111.401 21.6708L111.401 21.6708L110.489 22.0815ZM109.755 21.0737L110.43 20.336L110.43 20.3358L109.755 21.0737ZM107.704 18.2568L108.616 17.846L108.616 17.846L107.704 18.2568ZM107.704 11.5863L108.616 11.9972L108.616 11.9972L107.704 11.5863ZM109.755 8.76942L110.43 9.50732L110.43 9.50723L109.755 8.76942ZM123.139 8.76942L122.464 9.50723L122.464 9.50732L123.139 8.76942ZM125.19 11.5863L126.102 11.1754L126.102 11.1754L125.19 11.5863ZM125.19 18.2568L126.102 18.6677L126.102 18.6677L125.19 18.2568ZM123.139 21.0737L122.464 20.3358L122.464 20.3359L123.139 21.0737ZM123.139 25.4746L122.464 26.2124L122.464 26.2129L123.139 25.4746ZM127.922 25.4746L127.25 24.7347L127.248 24.7364L127.922 25.4746ZM131.452 20.6506L130.541 20.2383L130.541 20.2383L131.452 20.6506ZM132.693 14.9309L133.693 14.9308L133.693 14.9233L132.693 14.9309ZM127.893 4.34563L127.216 5.08176L127.216 5.08176L127.893 4.34563ZM20.2355 0.00225531L20.2316 1.00228L20.2395 1.00225L20.2355 0.00225531ZM8.79953 4.34596L8.12267 3.60984L8.79953 4.34596ZM31.6715 4.34596L32.3484 3.60984L32.3484 3.60984L31.6715 4.34596ZM36.471 14.9309L37.4711 14.9309L37.471 14.9234L36.471 14.9309ZM35.2299 20.6501L34.3188 20.2378L34.3188 20.2378L35.2299 20.6501ZM31.7002 25.4738L31.0275 24.7339L31.0256 24.7355L31.7002 25.4738ZM26.9169 25.4738L26.2418 26.2115L26.2423 26.212L26.9169 25.4738ZM26.1832 24.466L25.2715 24.8767L25.2715 24.8767L26.1832 24.466ZM26.1832 22.0797L25.2715 21.669L25.2715 21.669L26.1832 22.0797ZM26.9169 21.0719L26.242 20.334L26.2418 20.3342L26.9169 21.0719ZM28.9686 18.2549L28.0569 17.844L28.0569 17.844L28.9686 18.2549ZM26.9169 8.76676L26.2419 9.50459L26.242 9.50471L26.9169 8.76676ZM13.5322 8.76676L14.2071 9.50471L14.2072 9.50459L13.5322 8.76676ZM11.4805 11.5838L10.5688 11.1729L10.5688 11.1729L11.4805 11.5838ZM11.4805 18.2549L12.3922 17.844L12.3922 17.844L11.4805 18.2549ZM13.5322 21.0719L14.2073 20.3342L14.2071 20.334L13.5322 21.0719ZM14.2658 22.0797L15.1776 21.669L15.1776 21.669L14.2658 22.0797ZM14.2658 24.466L15.1776 24.8767L15.1776 24.8767L14.2658 24.466ZM13.5322 25.4738L14.2067 26.212L14.2073 26.2115L13.5322 25.4738ZM8.74889 25.4738L9.42343 24.7355L9.42302 24.7352L8.74889 25.4738ZM5.23105 20.6477L6.14282 20.237L6.14282 20.237L5.23105 20.6477ZM4.00002 14.9309L3.00003 14.9234L3.00002 14.9294L4.00002 14.9309ZM54.3957 16.3039L54.3905 15.3039L54.3905 15.3039L54.3957 16.3039ZM57.7598 13.1764L56.7599 13.1823L57.7598 13.1764ZM50.9945 13.2112L49.9945 13.2172L50.9945 13.2112ZM54.3586 10.0837L54.3638 11.0837L54.3638 11.0837L54.3586 10.0837ZM64.1935 6.65549C64.0868 6.9077 63.925 7.14262 63.7137 7.34456L65.0955 8.79043C65.4986 8.40521 65.8194 7.94513 66.0353 7.43501L64.1935 6.65549ZM64.3445 5.87082C64.3508 6.13707 64.3001 6.40354 64.1935 6.6555L66.0353 7.435C66.2513 6.92463 66.3569 6.37667 66.344 5.82387L64.3445 5.87082ZM64.1563 5.0915C64.2751 5.33985 64.3383 5.60457 64.3445 5.87081L66.344 5.82388C66.331 5.27107 66.1998 4.72849 65.9605 4.22833L64.1563 5.0915ZM63.6425 4.41974C63.864 4.61377 64.0374 4.84291 64.1563 5.0915L65.9605 4.22833C65.7213 3.72841 65.3799 3.2828 64.9601 2.91516L63.6425 4.41974ZM56.8114 1.20131C59.3839 1.63579 61.7558 2.75671 63.6401 4.41761L64.9626 2.91729C62.7898 1.00205 60.0721 -0.27629 57.1445 -0.770761L56.8114 1.20131ZM49.1823 1.98302C51.5869 1.03938 54.2389 0.766804 56.8114 1.20131L57.1445 -0.770761C54.2171 -1.26521 51.1972 -0.956169 48.4517 0.121248L49.1823 1.98302ZM43.2886 6.49161C44.7325 4.49681 46.778 2.92653 49.1823 1.98302L48.4517 0.121248C45.7058 1.1988 43.346 3.00142 41.6685 5.31887L43.2886 6.49161ZM41.0287 13.2071C41.0633 10.819 41.8453 8.48544 43.2886 6.49161L41.6685 5.31887C39.9902 7.63728 39.0696 10.3684 39.0289 13.1781L41.0287 13.2071ZM43.2886 19.8935C41.8453 17.8997 41.0633 15.5661 41.0287 13.1781L39.0289 13.2071C39.0696 16.0168 39.9902 18.7479 41.6685 21.0663L43.2886 19.8935ZM49.1823 24.4021C46.778 23.4586 44.7325 21.8883 43.2886 19.8935L41.6685 21.0663C43.346 23.3837 45.7058 25.1864 48.4517 26.2639L49.1823 24.4021ZM56.8114 25.1838C54.2389 25.6184 51.5869 25.3458 49.1823 24.4021L48.4517 26.2639C51.1972 27.3413 54.2171 27.6504 57.1445 27.1559L56.8114 25.1838ZM63.6401 21.9675C61.7558 23.6284 59.3839 24.7494 56.8114 25.1838L57.1445 27.1559C60.0721 26.6614 62.7898 25.3831 64.9626 23.4679L63.6401 21.9675ZM64.1563 21.2937C64.0374 21.5423 63.864 21.7714 63.6425 21.9654L64.9601 23.47C65.3799 23.1024 65.7213 22.6567 65.9605 22.1568L64.1563 21.2937ZM64.3445 20.5143C64.3383 20.7806 64.2751 21.0453 64.1563 21.2937L65.9605 22.1568C66.1998 21.6567 66.331 21.1141 66.344 20.5613L64.3445 20.5143ZM64.1935 19.7297C64.3001 19.9816 64.3508 20.2481 64.3445 20.5143L66.344 20.5613C66.3569 20.0085 66.2513 19.4605 66.0353 18.9502L64.1935 19.7297ZM63.7137 19.0406C63.925 19.2425 64.0868 19.4775 64.1935 19.7297L66.0353 18.9502C65.8194 18.44 65.4986 17.98 65.0955 17.5947L63.7137 19.0406ZM62.014 18.3602C62.6686 18.3731 63.2779 18.625 63.7145 19.0413L65.0948 17.594C64.2818 16.8186 63.1882 16.383 62.0534 16.3606L62.014 18.3602ZM60.2803 18.9755C60.7374 18.575 61.3593 18.3473 62.014 18.3602L62.0534 16.3606C60.9187 16.3382 59.8079 16.7303 58.9623 17.4712L60.2803 18.9755ZM54.2578 21.1602C56.4823 21.189 58.6435 20.4119 60.2809 18.975L58.9617 17.4717C57.7093 18.5707 56.0321 19.183 54.2837 19.1604L54.2578 21.1602ZM48.3002 18.8185C49.8952 20.2984 52.0332 21.1314 54.2578 21.1602L54.2837 19.1604C52.5353 19.1377 50.8782 18.4823 49.6605 17.3524L48.3002 18.8185ZM46.4515 16.2487C46.8825 17.2148 47.512 18.0874 48.3002 18.8186L49.6604 17.3524C49.0646 16.7996 48.5961 16.1469 48.2779 15.4338L46.4515 16.2487ZM45.7972 13.1926C45.7972 14.2436 46.0203 15.2824 46.4515 16.2487L48.2779 15.4338C47.9598 14.7209 47.7972 13.9595 47.7972 13.1926H45.7972ZM46.4515 10.1365C46.0203 11.1028 45.7972 12.1415 45.7972 13.1926H47.7972C47.7972 12.4256 47.9598 11.6643 48.2779 10.9514L46.4515 10.1365ZM48.3002 7.56658C47.512 8.29779 46.8825 9.17038 46.4515 10.1365L48.2779 10.9514C48.5961 10.2383 49.0646 9.58558 49.6604 9.03279L48.3002 7.56658ZM54.2578 5.22494C52.0332 5.25376 49.8952 6.08672 48.3002 7.56663L49.6605 9.03274C50.8782 7.90289 52.5353 7.24743 54.2837 7.22477L54.2578 5.22494ZM60.2809 7.41016C58.6435 5.97329 56.4823 5.19611 54.2578 5.22494L54.2837 7.22477C56.0321 7.20211 57.7093 7.81443 58.9617 8.91343L60.2809 7.41016ZM62.014 8.02486C61.3593 8.03788 60.7374 7.81021 60.2804 7.4097L58.9623 8.91389C59.8079 9.65493 60.9189 10.047 62.0538 10.0245L62.014 8.02486ZM63.7141 7.34328C63.2779 7.75976 62.6686 8.01183 62.014 8.02486L62.0538 10.0245C63.1887 10.0019 64.2824 9.56579 65.0951 8.78993L63.7141 7.34328ZM65.4046 8.0675V8.06661H63.4046V8.0675H65.4046ZM73.4403 4.57322C75.9377 2.27727 79.327 0.98507 82.8675 1.00014L82.876 -0.99984C78.8509 -1.01698 74.9696 0.450555 72.0867 3.10086L73.4403 4.57322ZM69.5218 13.1997C69.5457 9.97113 70.9452 6.86694 73.4403 4.57322L72.0867 3.10086C69.2013 5.75341 67.5501 9.37808 67.5219 13.1849L69.5218 13.1997ZM73.4058 21.8958C70.9093 19.5743 69.5219 16.4418 69.5219 13.1923H67.5219C67.5219 17.021 69.1581 20.6769 72.0438 23.3604L73.4058 21.8958ZM82.8718 25.5365C79.3087 25.5365 75.9048 24.2196 73.4058 21.8958L72.0438 23.3604C74.9272 26.0416 78.8232 27.5365 82.8718 27.5365V25.5365ZM92.3377 21.8958C89.8387 24.2196 86.4349 25.5365 82.8718 25.5365V27.5365C86.9203 27.5365 90.8163 26.0416 93.6997 23.3604L92.3377 21.8958ZM96.2217 13.1923C96.2217 16.4418 94.8342 19.5742 92.3377 21.8958L93.6997 23.3604C96.5854 20.6769 98.2217 17.021 98.2217 13.1923H96.2217ZM92.3032 4.57322C94.7983 6.86694 96.1978 9.97114 96.2217 13.1997L98.2217 13.1849C98.1935 9.37807 96.5422 5.7534 93.6568 3.10086L92.3032 4.57322ZM82.876 1.00014C86.4165 0.98507 89.8058 2.27727 92.3032 4.57322L93.6568 3.10086C90.7739 0.450558 86.8927 -1.01698 82.8675 -0.99984L82.876 1.00014ZM78.196 19.7913C79.5779 20.6686 81.201 21.1422 82.8612 21.1597L82.8823 19.1598C81.5858 19.1461 80.3281 18.7758 79.2679 18.1028L78.196 19.7913ZM75.0925 16.2021C75.7296 17.6678 76.8134 18.9136 78.196 19.7913L79.2679 18.1028C78.2083 17.4301 77.3977 16.4884 76.9266 15.4048L75.0925 16.2021ZM74.6417 11.5671C74.2968 13.1215 74.4549 14.7354 75.0925 16.2021L76.9266 15.4048C76.456 14.3222 76.3416 13.1389 76.5942 12.0003L74.6417 11.5671ZM77.0118 7.50022C75.8154 8.60005 74.9864 10.0134 74.6417 11.5671L76.5942 12.0003C76.847 10.861 77.4589 9.80593 78.3654 8.97256L77.0118 7.50022ZM81.3487 5.36754C79.7174 5.66251 78.2073 6.40108 77.0118 7.50022L78.3654 8.97256C79.2726 8.1385 80.4332 7.5655 81.7045 7.33563L81.3487 5.36754ZM86.2065 5.82946C84.6691 5.23241 82.9798 5.0726 81.3487 5.36754L81.7045 7.33563C82.976 7.10572 84.2914 7.23125 85.4825 7.69381L86.2065 5.82946ZM90.0066 8.74668C89.0693 7.43793 87.7443 6.42664 86.2065 5.82946L85.4825 7.69381C86.6733 8.15623 87.6789 8.93146 88.3807 9.91126L90.0066 8.74668ZM91.4505 13.1923C91.4506 11.6033 90.9448 10.0565 90.0066 8.74668L88.3807 9.91127C89.0817 10.8901 89.4505 12.0315 89.4505 13.1922L91.4505 13.1923ZM90.7714 16.2833C91.2124 15.309 91.4439 14.2605 91.4504 13.1984L89.4505 13.1862C89.4457 13.9645 89.2762 14.7365 88.9493 15.4586L90.7714 16.2833ZM88.8897 18.8718C89.6898 18.1362 90.3305 17.2574 90.7714 16.2833L88.9493 15.4585C88.6224 16.1808 88.1435 16.8411 87.5361 17.3995L88.8897 18.8718ZM86.1132 20.5768C87.1457 20.1855 88.0897 19.6072 88.8897 18.8718L87.5361 17.3995C86.9285 17.958 86.2048 18.4033 85.4044 18.7066L86.1132 20.5768ZM82.8665 21.1597C83.9777 21.1657 85.0807 20.9681 86.1132 20.5768L85.4044 18.7066C84.604 19.0099 83.7451 19.1644 82.8771 19.1598L82.8665 21.1597ZM105.698 5.08236C108.549 2.46106 112.415 0.986595 116.453 1.00224L116.461 -0.997745C111.938 -1.01527 107.58 0.634589 104.344 3.61017L105.698 5.08236ZM101.222 14.9385C101.25 11.2476 102.85 7.70141 105.698 5.08236L104.344 3.61017C101.106 6.58799 99.2545 10.6545 99.2222 14.9233L101.222 14.9385ZM102.365 20.2381C101.607 18.5554 101.219 16.7518 101.222 14.9325L99.2222 14.9293C99.2189 17.0363 99.6682 19.1207 100.542 21.0595L102.365 20.2381ZM105.646 24.7369C104.237 23.4512 103.123 21.921 102.365 20.2381L100.542 21.0595C101.415 22.998 102.693 24.7498 104.298 26.2142L105.646 24.7369ZM107.364 25.3853C106.709 25.3853 106.093 25.1456 105.647 24.7373L104.297 26.2138C105.127 26.9716 106.229 27.3853 107.364 27.3853V25.3853ZM109.081 24.7373C108.634 25.1456 108.018 25.3853 107.364 25.3853V27.3853C108.498 27.3853 109.6 26.9716 110.43 26.2138L109.081 24.7373ZM109.577 24.057C109.464 24.3075 109.297 24.5397 109.08 24.7378L110.43 26.2133C110.842 25.8367 111.173 25.3837 111.401 24.8785L109.577 24.057ZM109.747 23.2746C109.747 23.5411 109.69 23.8068 109.577 24.057L111.401 24.8785C111.628 24.373 111.747 23.8275 111.747 23.2746H109.747ZM109.577 22.4922C109.69 22.7425 109.747 23.0082 109.747 23.2746H111.747C111.747 22.7217 111.628 22.1763 111.401 21.6708L109.577 22.4922ZM109.08 21.8114C109.297 22.0096 109.464 22.2417 109.577 22.4922L111.401 21.6708C111.173 21.1656 110.842 20.7126 110.43 20.336L109.08 21.8114ZM106.792 18.6677C107.326 19.8513 108.105 20.9193 109.08 21.8116L110.43 20.3358C109.65 19.622 109.034 18.7748 108.616 17.846L106.792 18.6677ZM105.983 14.9216C105.983 16.2101 106.259 17.4838 106.792 18.6677L108.616 17.846C108.197 16.9174 107.983 15.9235 107.983 14.9216H105.983ZM106.792 11.1754C106.259 12.3593 105.983 13.633 105.983 14.9216H107.983C107.983 13.9197 108.197 12.9258 108.616 11.9972L106.792 11.1754ZM109.08 8.03152C108.105 8.92383 107.326 9.99182 106.792 11.1754L108.616 11.9972C109.034 11.0683 109.65 10.2212 110.43 9.50732L109.08 8.03152ZM116.447 5.22147C113.703 5.22147 111.056 6.22371 109.08 8.03161L110.43 9.50723C112.024 8.04943 114.184 7.22147 116.447 7.22147V5.22147ZM123.814 8.03161C121.838 6.22371 119.191 5.22147 116.447 5.22147V7.22147C118.711 7.22147 120.871 8.04943 122.464 9.50723L123.814 8.03161ZM126.102 11.1754C125.569 9.99183 124.789 8.92383 123.814 8.03152L122.464 9.50732C123.245 10.2212 123.86 11.0683 124.279 11.9972L126.102 11.1754ZM126.911 14.9216C126.911 13.633 126.636 12.3593 126.102 11.1754L124.279 11.9972C124.697 12.9258 124.911 13.9197 124.911 14.9216H126.911ZM126.102 18.6677C126.636 17.4838 126.911 16.2101 126.911 14.9216H124.911C124.911 15.9235 124.697 16.9174 124.279 17.846L126.102 18.6677ZM123.814 21.8116C124.789 20.9193 125.569 19.8513 126.102 18.6677L124.279 17.846C123.86 18.7748 123.245 19.622 122.464 20.3358L123.814 21.8116ZM123.317 22.4921C123.43 22.2417 123.598 22.0096 123.814 21.8115L122.464 20.3359C122.053 20.7124 121.721 21.1653 121.494 21.6705L123.317 22.4921ZM123.148 23.2742C123.148 23.0079 123.204 22.7422 123.317 22.4921L121.494 21.6705C121.266 22.1759 121.148 22.7213 121.148 23.2742H123.148ZM123.317 24.0563C123.204 23.8061 123.148 23.5405 123.148 23.2742H121.148C121.148 23.8271 121.266 24.3725 121.494 24.8779L123.317 24.0563ZM123.814 24.7369C123.598 24.5388 123.43 24.3067 123.317 24.0563L121.494 24.8779C121.721 25.3831 122.053 25.836 122.464 26.2124L123.814 24.7369ZM125.531 25.3844C124.876 25.3844 124.26 25.1447 123.814 24.7364L122.464 26.2129C123.294 26.9707 124.396 27.3844 125.531 27.3844V25.3844ZM127.248 24.7364C126.801 25.1447 126.185 25.3844 125.531 25.3844V27.3844C126.665 27.3844 127.767 26.9707 128.597 26.2129L127.248 24.7364ZM130.541 20.2383C129.78 21.9212 128.662 23.4507 127.25 24.7347L128.595 26.2146C130.204 24.752 131.486 23.0012 132.363 21.0628L130.541 20.2383ZM131.693 14.931C131.693 16.7515 131.302 18.5557 130.541 20.2383L132.363 21.0628C133.241 19.1242 133.693 17.0391 133.693 14.9308L131.693 14.931ZM127.216 5.08176C130.065 7.70087 131.665 11.2474 131.693 14.9385L133.693 14.9233C133.661 10.6542 131.809 6.58737 128.57 3.6095L127.216 5.08176ZM116.461 1.00224C120.499 0.986149 124.366 2.46042 127.216 5.08176L128.57 3.6095C125.334 0.63387 120.975 -1.01577 116.453 -0.997744L116.461 1.00224ZM20.2395 -0.997737C15.7172 -1.01551 11.3588 0.634238 8.12267 3.60984L9.47639 5.08207C12.3272 2.46075 16.1939 0.98638 20.2316 1.00225L20.2395 -0.997737ZM32.3484 3.60984C29.1123 0.634238 24.7539 -1.01551 20.2316 -0.997737L20.2395 1.00225C24.2772 0.98638 28.1439 2.46075 30.9947 5.08207L32.3484 3.60984ZM37.471 14.9234C37.4387 10.6543 35.5869 6.58768 32.3484 3.60984L30.9947 5.08207C33.843 7.70116 35.4432 11.2475 35.4711 14.9385L37.471 14.9234ZM36.1409 21.0624C37.0181 19.1239 37.4711 17.039 37.471 14.9309L35.471 14.931C35.4711 16.7513 35.0802 18.5553 34.3188 20.2378L36.1409 21.0624ZM32.3729 26.2137C33.9814 24.7512 35.2638 23.0006 36.1409 21.0624L34.3188 20.2378C33.5573 21.9206 32.4397 23.4499 31.0275 24.7339L32.3729 26.2137ZM29.3085 27.3836C30.4432 27.3836 31.5453 26.9699 32.3747 26.212L31.0256 24.7355C30.5788 25.1438 29.9631 25.3836 29.3085 25.3836V27.3836ZM26.2423 26.212C27.0717 26.9699 28.1738 27.3836 29.3085 27.3836V25.3836C28.6539 25.3836 28.0383 25.1438 27.5914 24.7355L26.2423 26.212ZM25.2715 24.8767C25.4991 25.3819 25.8302 25.8349 26.2418 26.2115L27.592 24.736C27.3755 24.5379 27.2079 24.3057 27.095 24.0552L25.2715 24.8767ZM24.9254 23.2729C24.9254 23.8258 25.0438 24.3713 25.2715 24.8767L27.095 24.0552C26.9822 23.8049 26.9254 23.5392 26.9254 23.2729H24.9254ZM25.2715 21.669C25.0438 22.1744 24.9254 22.7199 24.9254 23.2729H26.9254C26.9254 23.0065 26.9822 22.7408 27.095 22.4905L25.2715 21.669ZM26.2418 20.3342C25.8302 20.7108 25.4991 21.1638 25.2715 21.669L27.095 22.4905C27.2079 22.24 27.3755 22.0078 27.592 21.8097L26.2418 20.3342ZM28.0569 17.844C27.6382 18.773 27.0226 19.6201 26.242 20.334L27.5917 21.8099C28.5675 20.9176 29.3467 19.8495 29.8802 18.6658L28.0569 17.844ZM28.6898 14.9194C28.6898 15.9213 28.4755 16.9153 28.0569 17.844L29.8802 18.6658C30.4139 17.4819 30.6898 16.2081 30.6898 14.9194H28.6898ZM28.0569 11.9947C28.4755 12.9234 28.6898 13.9174 28.6898 14.9194H30.6898C30.6898 13.6306 30.4139 12.3568 29.8802 11.1729L28.0569 11.9947ZM26.242 9.50471C27.0226 10.2186 27.6382 11.0657 28.0569 11.9947L29.8802 11.1729C29.3467 9.98919 28.5675 8.92114 27.5917 8.02881L26.242 9.50471ZM20.2245 7.21873C22.4882 7.21873 24.6483 8.04672 26.2419 9.50459L27.5918 8.02893C25.6156 6.22099 22.9686 5.21873 20.2245 5.21873V7.21873ZM14.2072 9.50459C15.8008 8.04672 17.9609 7.21873 20.2245 7.21873V5.21873C17.4805 5.21873 14.8335 6.22099 12.8572 8.02893L14.2072 9.50459ZM12.3922 11.9947C12.8108 11.0657 13.4265 10.2186 14.2071 9.50471L12.8573 8.02881C11.8816 8.92114 11.1023 9.98919 10.5688 11.1729L12.3922 11.9947ZM11.7592 14.9194C11.7592 13.9174 11.9736 12.9234 12.3922 11.9947L10.5688 11.1729C10.0352 12.3568 9.75921 13.6306 9.75921 14.9194H11.7592ZM12.3922 17.844C11.9736 16.9153 11.7592 15.9213 11.7592 14.9194H9.75921C9.75921 16.2081 10.0352 17.4819 10.5688 18.6658L12.3922 17.844ZM14.2071 20.334C13.4265 19.6201 12.8108 18.773 12.3922 17.844L10.5688 18.6658C11.1023 19.8495 11.8816 20.9176 12.8573 21.8099L14.2071 20.334ZM15.1776 21.669C14.95 21.1638 14.6188 20.7108 14.2073 20.3342L12.8571 21.8097C13.0736 22.0078 13.2412 22.24 13.3541 22.4905L15.1776 21.669ZM15.5237 23.2729C15.5237 22.7199 15.4053 22.1744 15.1776 21.669L13.3541 22.4905C13.4668 22.7408 13.5237 23.0065 13.5237 23.2729H15.5237ZM15.1776 24.8767C15.4053 24.3713 15.5237 23.8258 15.5237 23.2729H13.5237C13.5237 23.5392 13.4668 23.8049 13.3541 24.0552L15.1776 24.8767ZM14.2073 26.2115C14.6188 25.8349 14.95 25.3819 15.1776 24.8767L13.3541 24.0552C13.2412 24.3057 13.0736 24.5379 12.8571 24.736L14.2073 26.2115ZM11.1405 27.3836C12.2752 27.3836 13.3773 26.9699 14.2067 26.212L12.8577 24.7355C12.4108 25.1438 11.7952 25.3836 11.1405 25.3836V27.3836ZM8.07434 26.212C8.90376 26.9699 10.0059 27.3836 11.1405 27.3836V25.3836C10.4859 25.3836 9.8703 25.1438 9.42343 24.7355L8.07434 26.212ZM4.31928 21.0584C5.1923 22.9966 6.47043 24.7481 8.07475 26.2124L9.42302 24.7352C8.01459 23.4497 6.90073 21.9196 6.14282 20.237L4.31928 21.0584ZM3.00002 14.9294C2.99684 17.036 3.44614 19.12 4.31928 21.0584L6.14282 20.237C5.38502 18.5546 4.99727 16.7514 5.00001 14.9324L3.00002 14.9294ZM8.12267 3.60984C4.88415 6.58768 3.03233 10.6543 3.00004 14.9234L4.99999 14.9385C5.0279 11.2475 6.62802 7.70116 9.47639 5.08207L8.12267 3.60984ZM54.4008 17.3038C56.7407 17.2918 58.7738 15.5182 58.7598 13.1704L56.7599 13.1823C56.7663 14.2699 55.787 15.2967 54.3905 15.3039L54.4008 17.3038ZM49.9945 13.2172C50.0084 15.5641 52.0613 17.3159 54.4008 17.3038L54.3905 15.3039C52.9936 15.3111 52.0009 14.2936 51.9944 13.2053L49.9945 13.2172ZM54.3535 9.08376C52.0136 9.0958 49.9805 10.8694 49.9945 13.2172L51.9944 13.2053C51.988 12.1177 52.9673 11.0909 54.3638 11.0837L54.3535 9.08376ZM58.7598 13.1704C58.7459 10.8235 56.693 9.07172 54.3535 9.08376L54.3638 11.0837C55.7607 11.0765 56.7534 12.094 56.7599 13.1823L58.7598 13.1704Z" fill="black" mask="url(#path-1-inside-1_10416_207)"/>
</g>
<defs>
<filter id="filter0_d_10416_207" x="0" y="0" width="136.693" height="34.5366" filterUnits="userSpaceOnUse" color-interpolation-filters="sRGB">
<feFlood flood-opacity="0" result="BackgroundImageFix"/>
<feColorMatrix in="SourceAlpha" type="matrix" values="0 0 0 0 0 0 0 0 0 0 0 0 0 0 0 0 0 0 127 0" result="hardAlpha"/>
<feOffset dy="4"/>
<feGaussianBlur stdDeviation="2"/>
<feComposite in2="hardAlpha" operator="out"/>
<feColorMatrix type="matrix" values="0 0 0 0 0 0 0 0 0 0 0 0 0 0 0 0 0 0 0.25 0"/>
<feBlend mode="normal" in2="BackgroundImageFix" result="effect1_dropShadow_10416_207"/>
<feBlend mode="normal" in="SourceGraphic" in2="effect1_dropShadow_10416_207" result="shape"/>
</filter>
</defs>
</svg>
