<svg width="213" height="459" viewBox="0 0 213 459" fill="none" xmlns="http://www.w3.org/2000/svg">
<mask id="mask0_164_291" style="mask-type:alpha" maskUnits="userSpaceOnUse" x="0" y="0" width="213" height="459">
<path fill-rule="evenodd" clip-rule="evenodd" d="M0.80577 24.9504C0.782359 25.4023 0.770508 25.8573 0.770508 26.3151V432.533C0.770508 446.866 12.3899 458.485 26.7233 458.485H186.389C200.723 458.485 212.342 446.866 212.342 432.533V26.3151C212.342 26.2591 212.342 26.2031 212.342 26.1472C212.251 11.8912 200.667 0.362267 186.389 0.362267H169.416C167.472 1.04643 166.078 2.8992 166.078 5.07731C166.078 11.9769 160.485 17.5701 153.586 17.5701H58.9628C52.0632 17.5701 46.47 11.9769 46.47 5.07731C46.47 2.8992 45.0764 1.04643 43.1321 0.362267H26.7233C20.2563 0.362267 14.3417 2.72765 9.79757 6.64045C8.04702 8.14779 6.49986 9.88477 5.20283 11.8046C2.64281 15.594 1.05726 20.0957 0.80577 24.9504Z" fill="black"/>
</mask>
<g mask="url(#mask0_164_291)">
<path d="M0.76709 0.362297H212.339V458.485H0.76709V0.362297Z" fill="url(#paint0_linear_164_291)"/>
<rect x="0.507812" y="0.526491" width="211.364" height="457.674" rx="9.0182" fill="url(#paint1_linear_164_291)"/>
<path fill-rule="evenodd" clip-rule="evenodd" d="M53.9944 74.4981C54.1305 74.7834 54.5367 74.7834 54.6728 74.4981L57.4176 68.7429H57.6905L60.4353 74.4981C60.5714 74.7834 60.9775 74.7834 61.1136 74.4981L63.8584 68.7429H64.131L66.8758 74.4981C67.0119 74.7834 67.418 74.7834 67.5541 74.4981L70.2989 68.7429H70.5713L73.3162 74.4981C73.4523 74.7834 73.8584 74.7834 73.9945 74.4981L76.7393 68.7429H77.0121L79.7569 74.4981C79.893 74.7834 80.2991 74.7834 80.4352 74.4981L83.18 68.7429H83.4526L86.1974 74.4981C86.3335 74.7834 86.7396 74.7834 86.8757 74.4981L89.6205 68.7429H89.8931L92.6379 74.4981C92.774 74.7834 93.1801 74.7834 93.3162 74.4981L96.061 68.7429H96.3333L99.0781 74.4981C99.2142 74.7834 99.6204 74.7834 99.7565 74.4981L102.501 68.7429H102.774L105.519 74.4981C105.655 74.7834 106.061 74.7834 106.197 74.4981L108.942 68.7429H109.215L111.959 74.4981C112.096 74.7834 112.502 74.7834 112.638 74.4981L115.383 68.7429H115.655L118.4 74.4981C118.536 74.7834 118.942 74.7834 119.078 74.4981L121.823 68.7429H122.095L124.84 74.4982C124.976 74.7835 125.383 74.7835 125.519 74.4982L128.264 68.7429H128.536L131.281 74.4982C131.417 74.7835 131.823 74.7835 131.959 74.4982L134.704 68.7429H134.977L137.721 74.4982C137.858 74.7835 138.264 74.7835 138.4 74.4982L141.145 68.7429H141.417L144.162 74.4982C144.298 74.7835 144.704 74.7835 144.84 74.4982L147.585 68.7429H147.857L150.602 74.4982C150.738 74.7835 151.145 74.7835 151.281 74.4982L154.026 68.7429H154.298L157.043 74.4982C157.179 74.7835 157.585 74.7835 157.721 74.4982L160.466 68.7429H160.738L163.483 74.4982C163.619 74.7835 164.025 74.7835 164.162 74.4982L166.906 68.7429H167.179L169.924 74.4982C170.06 74.7835 170.466 74.7835 170.602 74.4982L173.347 68.7429H173.635L176.38 74.4982C176.516 74.7835 176.922 74.7835 177.058 74.4982L179.803 68.7429H180.09L182.835 74.4982C182.971 74.7835 183.378 74.7835 183.514 74.4982L186.258 68.7429H186.546L189.291 74.4982C189.427 74.7835 189.833 74.7835 189.969 74.4982L192.714 68.7429H193.108V370.101H18.5439V68.7429H19.0473L21.7922 74.4982C21.9283 74.7835 22.3344 74.7835 22.4705 74.4982L25.2154 68.7429H25.4876L28.2325 74.4982C28.3685 74.7835 28.7747 74.7835 28.9108 74.4982L31.6557 68.7429H31.9283L34.6732 74.4982C34.8093 74.7835 35.2154 74.7835 35.3515 74.4982L38.0964 68.7429H38.3689L41.1138 74.4982C41.2499 74.7835 41.656 74.7835 41.7921 74.4982L44.537 68.7429H44.8092L47.5541 74.4982C47.6902 74.7835 48.0963 74.7835 48.2324 74.4982L50.9773 68.7429H51.2496L53.9944 74.4981Z" fill="#FBF9BE"/>
<rect opacity="0.6" x="18.5444" y="327.265" width="174.728" height="37.5758" fill="url(#paint2_linear_164_291)"/>
<path d="M9.15039 353.568H202.666V373.107C202.666 374.767 201.32 376.113 199.66 376.113H12.1565C10.4963 376.113 9.15039 374.767 9.15039 373.107V353.568Z" fill="#0896D7"/>
<path d="M18.5443 353.568H9.15039L18.5443 348.683V353.568Z" fill="#0888C2"/>
<path d="M193.272 353.568H202.666L193.272 348.683V353.568Z" fill="#0888C2"/>
<path d="M67.3144 47.3382C67.3144 46.5125 67.4988 45.775 67.8675 45.1257C68.2443 44.4684 68.7533 43.9594 69.3946 43.5987C70.0439 43.2299 70.7694 43.0455 71.571 43.0455C72.5089 43.0455 73.3305 43.286 74.036 43.767C74.7414 44.248 75.2344 44.9133 75.515 45.763H73.579C73.3867 45.3622 73.1141 45.0616 72.7614 44.8612C72.4167 44.6608 72.0159 44.5606 71.559 44.5606C71.07 44.5606 70.6331 44.6768 70.2483 44.9093C69.8716 45.1337 69.575 45.4544 69.3585 45.8712C69.1501 46.2881 69.0459 46.7771 69.0459 47.3382C69.0459 47.8913 69.1501 48.3803 69.3585 48.8052C69.575 49.222 69.8716 49.5467 70.2483 49.7791C70.6331 50.0036 71.07 50.1158 71.559 50.1158C72.0159 50.1158 72.4167 50.0156 72.7614 49.8152C73.1141 49.6068 73.3867 49.3022 73.579 48.9014H75.515C75.2344 49.7591 74.7414 50.4284 74.036 50.9094C73.3386 51.3824 72.5169 51.6188 71.571 51.6188C70.7694 51.6188 70.0439 51.4385 69.3946 51.0777C68.7533 50.709 68.2443 50.2 67.8675 49.5507C67.4988 48.9014 67.3144 48.1639 67.3144 47.3382ZM79.9108 51.6549C79.2695 51.6549 78.6923 51.5146 78.1793 51.2341C77.6662 50.9455 77.2614 50.5407 76.9648 50.0196C76.6762 49.4986 76.5319 48.8973 76.5319 48.216C76.5319 47.5346 76.6802 46.9334 76.9768 46.4123C77.2815 45.8913 77.6943 45.4905 78.2153 45.2099C78.7364 44.9213 79.3176 44.777 79.9589 44.777C80.6002 44.777 81.1813 44.9213 81.7024 45.2099C82.2234 45.4905 82.6323 45.8913 82.9289 46.4123C83.2335 46.9334 83.3858 47.5346 83.3858 48.216C83.3858 48.8973 83.2295 49.4986 82.9168 50.0196C82.6122 50.5407 82.1954 50.9455 81.6663 51.2341C81.1453 51.5146 80.5601 51.6549 79.9108 51.6549ZM79.9108 50.1879C80.2154 50.1879 80.5 50.1158 80.7645 49.9715C81.037 49.8192 81.2535 49.5948 81.4138 49.2982C81.5741 49.0016 81.6543 48.6408 81.6543 48.216C81.6543 47.5827 81.4859 47.0977 81.1493 46.761C80.8206 46.4163 80.4158 46.244 79.9348 46.244C79.4538 46.244 79.049 46.4163 78.7204 46.761C78.3997 47.0977 78.2394 47.5827 78.2394 48.216C78.2394 48.8492 78.3957 49.3382 78.7083 49.6829C79.029 50.0196 79.4298 50.1879 79.9108 50.1879ZM92.8933 44.7891C93.711 44.7891 94.3683 45.0416 94.8653 45.5466C95.3703 46.0436 95.6228 46.741 95.6228 47.6388V51.5467H93.9394V47.8673C93.9394 47.3462 93.8071 46.9494 93.5426 46.6769C93.2781 46.3963 92.9174 46.256 92.4604 46.256C92.0035 46.256 91.6388 46.3963 91.3662 46.6769C91.1017 46.9494 90.9694 47.3462 90.9694 47.8673V51.5467H89.286V47.8673C89.286 47.3462 89.1538 46.9494 88.8892 46.6769C88.6247 46.3963 88.264 46.256 87.807 46.256C87.3421 46.256 86.9734 46.3963 86.7008 46.6769C86.4363 46.9494 86.304 47.3462 86.304 47.8673V51.5467H84.6206V44.8852H86.304V45.6909C86.5204 45.4103 86.797 45.1899 87.1337 45.0295C87.4784 44.8692 87.8551 44.7891 88.264 44.7891C88.785 44.7891 89.25 44.9013 89.6588 45.1257C90.0676 45.3422 90.3842 45.6548 90.6087 46.0636C90.8251 45.6788 91.1378 45.3702 91.5466 45.1378C91.9634 44.9053 92.4123 44.7891 92.8933 44.7891ZM98.9037 45.8472C99.1201 45.5426 99.4167 45.2901 99.7935 45.0897C100.178 44.8812 100.615 44.777 101.104 44.777C101.673 44.777 102.186 44.9173 102.643 45.1979C103.108 45.4784 103.473 45.8793 103.737 46.4003C104.01 46.9133 104.146 47.5105 104.146 48.1919C104.146 48.8733 104.01 49.4785 103.737 50.0076C103.473 50.5286 103.108 50.9335 102.643 51.222C102.186 51.5106 101.673 51.6549 101.104 51.6549C100.615 51.6549 100.182 51.5547 99.8055 51.3543C99.4367 51.1539 99.1361 50.9014 98.9037 50.5968V54.7211H97.2203V44.8852H98.9037V45.8472ZM102.427 48.1919C102.427 47.7911 102.343 47.4464 102.174 47.1578C102.014 46.8612 101.797 46.6368 101.525 46.4845C101.26 46.3322 100.972 46.256 100.659 46.256C100.355 46.256 100.066 46.3362 99.7935 46.4965C99.5289 46.6488 99.3125 46.8733 99.1441 47.1699C98.9838 47.4665 98.9037 47.8152 98.9037 48.216C98.9037 48.6168 98.9838 48.9655 99.1441 49.2621C99.3125 49.5587 99.5289 49.7871 99.7935 49.9475C100.066 50.0998 100.355 50.1759 100.659 50.1759C100.972 50.1759 101.26 50.0958 101.525 49.9354C101.797 49.7751 102.014 49.5467 102.174 49.2501C102.343 48.9535 102.427 48.6007 102.427 48.1919ZM107.053 45.9193C107.269 45.5666 107.55 45.2901 107.895 45.0897C108.247 44.8893 108.648 44.7891 109.097 44.7891V46.5566H108.652C108.123 46.5566 107.722 46.6809 107.45 46.9294C107.185 47.1779 107.053 47.6107 107.053 48.228V51.5467H105.37V44.8852H107.053V45.9193ZM113.189 51.6549C112.548 51.6549 111.97 51.5146 111.457 51.2341C110.944 50.9455 110.54 50.5407 110.243 50.0196C109.954 49.4986 109.81 48.8973 109.81 48.216C109.81 47.5346 109.958 46.9334 110.255 46.4123C110.56 45.8913 110.972 45.4905 111.493 45.2099C112.014 44.9213 112.596 44.777 113.237 44.777C113.878 44.777 114.459 44.9213 114.98 45.2099C115.502 45.4905 115.91 45.8913 116.207 46.4123C116.512 46.9334 116.664 47.5346 116.664 48.216C116.664 48.8973 116.508 49.4986 116.195 50.0196C115.89 50.5407 115.473 50.9455 114.944 51.2341C114.423 51.5146 113.838 51.6549 113.189 51.6549ZM113.189 50.1879C113.493 50.1879 113.778 50.1158 114.043 49.9715C114.315 49.8192 114.532 49.5948 114.692 49.2982C114.852 49.0016 114.932 48.6408 114.932 48.216C114.932 47.5827 114.764 47.0977 114.427 46.761C114.099 46.4163 113.694 46.244 113.213 46.244C112.732 46.244 112.327 46.4163 111.998 46.761C111.678 47.0977 111.517 47.5827 111.517 48.216C111.517 48.8492 111.674 49.3382 111.986 49.6829C112.307 50.0196 112.708 50.1879 113.189 50.1879ZM120.676 49.9956L122.36 44.8852H124.151L121.686 51.5467H119.642L117.189 44.8852H118.993L120.676 49.9956ZM124.664 48.1919C124.664 47.5186 124.796 46.9214 125.061 46.4003C125.333 45.8793 125.698 45.4784 126.155 45.1979C126.62 44.9173 127.137 44.777 127.706 44.777C128.203 44.777 128.636 44.8772 129.005 45.0776C129.381 45.278 129.682 45.5306 129.907 45.8352V44.8852H131.602V51.5467H129.907V50.5727C129.69 50.8854 129.389 51.1459 129.005 51.3543C128.628 51.5547 128.191 51.6549 127.694 51.6549C127.133 51.6549 126.62 51.5106 126.155 51.222C125.698 50.9335 125.333 50.5286 125.061 50.0076C124.796 49.4785 124.664 48.8733 124.664 48.1919ZM129.907 48.216C129.907 47.8071 129.826 47.4584 129.666 47.1699C129.506 46.8733 129.289 46.6488 129.017 46.4965C128.744 46.3362 128.452 46.256 128.139 46.256C127.826 46.256 127.538 46.3322 127.273 46.4845C127.009 46.6368 126.792 46.8612 126.624 47.1578C126.464 47.4464 126.383 47.7911 126.383 48.1919C126.383 48.5927 126.464 48.9454 126.624 49.2501C126.792 49.5467 127.009 49.7751 127.273 49.9354C127.546 50.0958 127.834 50.1759 128.139 50.1759C128.452 50.1759 128.744 50.0998 129.017 49.9475C129.289 49.7871 129.506 49.5627 129.666 49.2741C129.826 48.9775 129.907 48.6248 129.907 48.216ZM136.938 44.7891C137.731 44.7891 138.372 45.0416 138.861 45.5466C139.35 46.0436 139.595 46.741 139.595 47.6388V51.5467H137.912V47.8673C137.912 47.3382 137.779 46.9334 137.515 46.6528C137.25 46.3642 136.889 46.2199 136.433 46.2199C135.968 46.2199 135.599 46.3642 135.326 46.6528C135.062 46.9334 134.929 47.3382 134.929 47.8673V51.5467H133.246V44.8852H134.929V45.7149C135.154 45.4263 135.439 45.2019 135.783 45.0416C136.136 44.8732 136.521 44.7891 136.938 44.7891ZM143.156 46.268V49.4905C143.156 49.715 143.208 49.8793 143.312 49.9835C143.424 50.0797 143.609 50.1278 143.865 50.1278H144.647V51.5467H143.589C142.17 51.5467 141.46 50.8573 141.46 49.4785V46.268H140.667V44.8852H141.46V43.2379H143.156V44.8852H144.647V46.268H143.156ZM152.05 48.0717C152.05 48.3122 152.034 48.5286 152.002 48.721H147.132C147.172 49.202 147.34 49.5787 147.637 49.8513C147.934 50.1238 148.298 50.2601 148.731 50.2601C149.357 50.2601 149.801 49.9916 150.066 49.4545H151.882C151.689 50.0958 151.321 50.6248 150.775 51.0417C150.23 51.4505 149.561 51.6549 148.767 51.6549C148.126 51.6549 147.549 51.5146 147.036 51.2341C146.531 50.9455 146.134 50.5407 145.845 50.0196C145.565 49.4986 145.425 48.8973 145.425 48.216C145.425 47.5266 145.565 46.9214 145.845 46.4003C146.126 45.8793 146.519 45.4784 147.024 45.1979C147.529 44.9173 148.11 44.777 148.767 44.777C149.401 44.777 149.966 44.9133 150.463 45.1859C150.968 45.4584 151.357 45.8472 151.629 46.3522C151.91 46.8492 152.05 47.4224 152.05 48.0717ZM150.306 47.5907C150.298 47.1578 150.142 46.8131 149.838 46.5566C149.533 46.2921 149.16 46.1598 148.719 46.1598C148.302 46.1598 147.95 46.2881 147.661 46.5446C147.381 46.7931 147.208 47.1418 147.144 47.5907H150.306Z" fill="white"/>
<path fill-rule="evenodd" clip-rule="evenodd" d="M23.5179 43.4283L18.9378 48.0084L19.7349 48.8055L24.315 44.2254L28.8951 48.8056L29.6922 48.0085L25.1121 43.4283L29.6925 38.848L28.8954 38.0508L24.315 42.6312L19.7346 38.0509L18.9375 38.848L23.5179 43.4283Z" fill="white"/>
<path fill-rule="evenodd" clip-rule="evenodd" d="M104.116 100.58C104.245 100.447 104.347 100.29 104.415 100.117C104.483 99.9442 104.516 99.7597 104.512 99.5741C104.508 99.3886 104.467 99.2057 104.391 99.0361C104.316 98.8666 104.207 98.7137 104.072 98.5865C103.218 97.7763 102.145 97.2328 100.987 97.0223C99.8281 96.8119 98.6332 96.9436 97.5482 97.4015C96.4633 97.8594 95.5352 98.6235 94.8777 99.6004C94.2201 100.577 93.8614 101.725 93.8455 102.902C93.8614 104.08 94.2201 105.227 94.8777 106.204C95.5352 107.181 96.4633 107.945 97.5482 108.403C98.6332 108.861 99.8281 108.992 100.987 108.782C102.145 108.572 103.218 108.028 104.072 107.218C104.207 107.091 104.316 106.938 104.391 106.768C104.467 106.599 104.508 106.416 104.512 106.23C104.516 106.045 104.483 105.86 104.415 105.687C104.347 105.515 104.245 105.357 104.116 105.224C103.853 104.954 103.494 104.799 103.117 104.791C102.74 104.783 102.375 104.923 102.1 105.182C101.492 105.756 100.683 106.071 99.8461 106.059C99.0091 106.047 98.2096 105.71 97.6171 105.119C97.3255 104.828 97.0942 104.483 96.9363 104.102C96.7785 103.722 96.6973 103.314 96.6973 102.902C96.6973 102.49 96.7785 102.082 96.9363 101.702C97.0942 101.322 97.3255 100.976 97.6171 100.685C98.2096 100.094 99.0091 99.7568 99.8461 99.7452C100.683 99.7335 101.492 100.048 102.1 100.623C102.375 100.881 102.74 101.022 103.117 101.014C103.494 101.006 103.853 100.85 104.116 100.58V100.58ZM111.722 96.9259C110.128 96.9186 108.596 97.5438 107.463 98.6643C106.329 99.7848 105.687 101.309 105.676 102.903C105.676 104.507 106.313 106.044 107.447 107.178C108.58 108.312 110.118 108.949 111.722 108.949C113.325 108.949 114.863 108.312 115.997 107.178C117.131 106.044 117.768 104.507 117.768 102.903C117.757 101.309 117.114 99.7848 115.981 98.6643C114.847 97.5438 113.316 96.9186 111.722 96.9259ZM111.722 106.06C111.099 106.053 110.492 105.862 109.978 105.51C109.463 105.159 109.064 104.664 108.831 104.086C108.597 103.509 108.54 102.875 108.666 102.265C108.791 101.655 109.095 101.096 109.538 100.658C109.981 100.22 110.544 99.9225 111.155 99.8036C111.767 99.6847 112.399 99.7493 112.974 99.9894C113.549 100.229 114.04 100.634 114.385 101.153C114.731 101.671 114.915 102.28 114.915 102.903C114.913 103.32 114.828 103.732 114.666 104.117C114.505 104.501 114.269 104.85 113.972 105.143C113.676 105.436 113.324 105.668 112.938 105.825C112.552 105.982 112.139 106.062 111.722 106.06ZM126.047 96.9259C124.244 96.9183 122.511 97.6261 121.229 98.8941C119.947 100.162 119.22 101.887 119.207 103.69C119.206 104.579 119.382 105.46 119.726 106.28C120.069 107.101 120.573 107.844 121.208 108.467C121.477 108.732 121.839 108.88 122.216 108.88C122.593 108.88 122.955 108.732 123.223 108.467C123.356 108.337 123.461 108.182 123.533 108.011C123.604 107.84 123.641 107.656 123.641 107.47C123.641 107.285 123.604 107.101 123.533 106.93C123.461 106.758 123.356 106.603 123.223 106.473C122.854 106.109 122.56 105.675 122.359 105.197C122.159 104.718 122.055 104.204 122.055 103.686C122.055 103.167 122.159 102.653 122.359 102.174C122.56 101.696 122.854 101.262 123.223 100.898C123.975 100.158 124.988 99.7437 126.043 99.7437C127.098 99.7437 128.11 100.158 128.862 100.898C129.232 101.262 129.526 101.696 129.727 102.174C129.927 102.653 130.031 103.167 130.031 103.686C130.031 104.204 129.927 104.718 129.727 105.197C129.526 105.675 129.232 106.109 128.862 106.473C128.73 106.603 128.625 106.758 128.553 106.93C128.482 107.101 128.445 107.284 128.445 107.47C128.445 107.656 128.482 107.839 128.553 108.01C128.625 108.182 128.73 108.337 128.862 108.467C129.131 108.731 129.493 108.879 129.87 108.879C130.247 108.879 130.609 108.731 130.878 108.467C131.514 107.845 132.02 107.102 132.365 106.281C132.71 105.461 132.888 104.58 132.888 103.69C132.875 101.886 132.148 100.162 130.866 98.8938C129.583 97.6258 127.85 96.9181 126.047 96.9259ZM80.6877 98.8947C81.97 97.6268 83.7028 96.9191 85.5061 96.9267C87.3094 96.9191 89.0421 97.6268 90.3244 98.8947C91.6067 100.163 92.3339 101.887 92.3466 103.691C92.3466 104.581 92.1688 105.462 91.8237 106.282C91.4785 107.102 90.9728 107.845 90.3365 108.467C90.0676 108.732 89.7057 108.88 89.3288 108.88C88.9519 108.88 88.59 108.732 88.3211 108.467C88.1888 108.337 88.0837 108.182 88.012 108.011C87.9403 107.84 87.9034 107.656 87.9034 107.47C87.9034 107.285 87.9403 107.101 88.012 106.93C88.0837 106.758 88.1888 106.603 88.3211 106.473C88.6911 106.109 88.985 105.675 89.1856 105.197C89.3862 104.718 89.4895 104.204 89.4895 103.685C89.4895 103.166 89.3862 102.653 89.1856 102.174C88.985 101.695 88.6911 101.262 88.3211 100.898C87.5691 100.158 86.5564 99.7433 85.5014 99.7433C84.4465 99.7433 83.4338 100.158 82.6817 100.898C82.3117 101.262 82.0179 101.695 81.8173 102.174C81.6167 102.653 81.5134 103.166 81.5134 103.685C81.5134 104.204 81.6167 104.718 81.8173 105.197C82.0179 105.675 82.3117 106.109 82.6817 106.473C82.814 106.603 82.9191 106.758 82.9908 106.93C83.0626 107.101 83.0995 107.285 83.0995 107.47C83.0995 107.656 83.0626 107.84 82.9908 108.011C82.9191 108.182 82.814 108.337 82.6817 108.467C82.4129 108.732 82.051 108.88 81.6741 108.88C81.2971 108.88 80.9353 108.732 80.6664 108.467C80.0317 107.844 79.5278 107.101 79.1842 106.281C78.8406 105.461 78.6643 104.58 78.6655 103.691C78.6782 101.887 79.4054 100.163 80.6877 98.8947ZM101.316 102.895C101.32 103.673 100.686 104.307 99.8986 104.312C99.1115 104.316 98.4699 103.689 98.4656 102.911C98.4613 102.132 99.0959 101.498 99.8831 101.494C100.67 101.489 101.312 102.117 101.316 102.895Z" fill="#0073CE"/>
<rect x="38.8354" y="405.97" width="133.723" height="27.4304" rx="13.7152" fill="white"/>
<path d="M74.0385 419.913C74.0385 419.285 74.1787 418.724 74.4591 418.23C74.7456 417.731 75.1326 417.344 75.6203 417.069C76.114 416.789 76.6657 416.649 77.2752 416.649C77.9884 416.649 78.6132 416.832 79.1497 417.197C79.6861 417.563 80.061 418.069 80.2743 418.715H78.8022C78.6559 418.41 78.4487 418.182 78.1804 418.029C77.9183 417.877 77.6136 417.801 77.2661 417.801C76.8943 417.801 76.5621 417.889 76.2695 418.066C75.983 418.237 75.7574 418.48 75.5929 418.797C75.4344 419.114 75.3551 419.486 75.3551 419.913C75.3551 420.333 75.4344 420.705 75.5929 421.028C75.7574 421.345 75.983 421.592 76.2695 421.769C76.5621 421.94 76.8943 422.025 77.2661 422.025C77.6136 422.025 77.9183 421.949 78.1804 421.796C78.4487 421.638 78.6559 421.406 78.8022 421.102H80.2743C80.061 421.754 79.6861 422.263 79.1497 422.628C78.6193 422.988 77.9945 423.168 77.2752 423.168C76.6657 423.168 76.114 423.031 75.6203 422.757C75.1326 422.476 74.7456 422.089 74.4591 421.595C74.1787 421.102 74.0385 420.541 74.0385 419.913ZM83.6169 423.195C83.1293 423.195 82.6904 423.089 82.3003 422.875C81.9102 422.656 81.6023 422.348 81.3768 421.952C81.1574 421.556 81.0476 421.098 81.0476 420.58C81.0476 420.062 81.1604 419.605 81.3859 419.209C81.6176 418.813 81.9315 418.508 82.3277 418.294C82.7239 418.075 83.1659 417.965 83.6535 417.965C84.1412 417.965 84.5831 418.075 84.9793 418.294C85.3755 418.508 85.6864 418.813 85.912 419.209C86.1436 419.605 86.2594 420.062 86.2594 420.58C86.2594 421.098 86.1405 421.556 85.9028 421.952C85.6712 422.348 85.3542 422.656 84.9519 422.875C84.5557 423.089 84.1107 423.195 83.6169 423.195ZM83.6169 422.08C83.8486 422.08 84.065 422.025 84.2661 421.915C84.4734 421.799 84.638 421.629 84.7599 421.403C84.8818 421.178 84.9427 420.903 84.9427 420.58C84.9427 420.099 84.8147 419.73 84.5587 419.474C84.3088 419.212 84.001 419.081 83.6352 419.081C83.2695 419.081 82.9617 419.212 82.7117 419.474C82.4679 419.73 82.346 420.099 82.346 420.58C82.346 421.062 82.4649 421.434 82.7026 421.696C82.9464 421.952 83.2512 422.08 83.6169 422.08ZM93.4891 417.974C94.1108 417.974 94.6107 418.166 94.9886 418.551C95.3726 418.928 95.5646 419.459 95.5646 420.141V423.113H94.2846V420.315C94.2846 419.919 94.184 419.617 93.9828 419.41C93.7817 419.197 93.5074 419.09 93.1599 419.09C92.8125 419.09 92.5351 419.197 92.3279 419.41C92.1267 419.617 92.0261 419.919 92.0261 420.315V423.113H90.7461V420.315C90.7461 419.919 90.6455 419.617 90.4443 419.41C90.2432 419.197 89.9689 419.09 89.6214 419.09C89.2679 419.09 88.9875 419.197 88.7802 419.41C88.5791 419.617 88.4785 419.919 88.4785 420.315V423.113H87.1984V418.048H88.4785V418.66C88.6431 418.447 88.8534 418.279 89.1094 418.157C89.3715 418.035 89.658 417.974 89.9689 417.974C90.3651 417.974 90.7186 418.06 91.0295 418.23C91.3404 418.395 91.5812 418.633 91.7518 418.944C91.9164 418.651 92.1541 418.416 92.465 418.24C92.782 418.063 93.1233 417.974 93.4891 417.974ZM98.0595 418.779C98.224 418.547 98.4496 418.355 98.7361 418.203C99.0287 418.045 99.3609 417.965 99.7327 417.965C100.165 417.965 100.556 418.072 100.903 418.285C101.257 418.499 101.534 418.803 101.735 419.2C101.942 419.59 102.046 420.044 102.046 420.562C102.046 421.08 101.942 421.54 101.735 421.943C101.534 422.339 101.257 422.647 100.903 422.866C100.556 423.086 100.165 423.195 99.7327 423.195C99.3609 423.195 99.0317 423.119 98.7452 422.967C98.4648 422.814 98.2362 422.622 98.0595 422.391V425.527H96.7794V418.048H98.0595V418.779ZM100.738 420.562C100.738 420.257 100.674 419.995 100.546 419.776C100.425 419.55 100.26 419.38 100.053 419.264C99.8516 419.148 99.6321 419.09 99.3944 419.09C99.1628 419.09 98.9433 419.151 98.7361 419.273C98.5349 419.389 98.3703 419.559 98.2423 419.785C98.1204 420.01 98.0595 420.276 98.0595 420.58C98.0595 420.885 98.1204 421.15 98.2423 421.376C98.3703 421.601 98.5349 421.775 98.7361 421.897C98.9433 422.013 99.1628 422.071 99.3944 422.071C99.6321 422.071 99.8516 422.01 100.053 421.888C100.26 421.766 100.425 421.592 100.546 421.367C100.674 421.141 100.738 420.873 100.738 420.562ZM102.647 420.562C102.647 420.05 102.748 419.596 102.949 419.2C103.156 418.803 103.433 418.499 103.781 418.285C104.134 418.072 104.528 417.965 104.96 417.965C105.338 417.965 105.667 418.042 105.948 418.194C106.234 418.346 106.463 418.538 106.634 418.77V418.048H107.923V423.113H106.634V422.372C106.469 422.61 106.24 422.808 105.948 422.967C105.661 423.119 105.329 423.195 104.951 423.195C104.524 423.195 104.134 423.086 103.781 422.866C103.433 422.647 103.156 422.339 102.949 421.943C102.748 421.54 102.647 421.08 102.647 420.562ZM106.634 420.58C106.634 420.269 106.573 420.004 106.451 419.785C106.329 419.559 106.164 419.389 105.957 419.273C105.75 419.151 105.527 419.09 105.289 419.09C105.052 419.09 104.832 419.148 104.631 419.264C104.43 419.38 104.265 419.55 104.137 419.776C104.016 419.995 103.955 420.257 103.955 420.562C103.955 420.867 104.016 421.135 104.137 421.367C104.265 421.592 104.43 421.766 104.631 421.888C104.838 422.01 105.058 422.071 105.289 422.071C105.527 422.071 105.75 422.013 105.957 421.897C106.164 421.775 106.329 421.604 106.451 421.385C106.573 421.159 106.634 420.891 106.634 420.58ZM110.453 418.834C110.618 418.566 110.831 418.355 111.093 418.203C111.361 418.051 111.666 417.974 112.008 417.974V419.319H111.669C111.267 419.319 110.962 419.413 110.755 419.602C110.554 419.791 110.453 420.12 110.453 420.59V423.113H109.173V418.048H110.453V418.834ZM114.36 419.099V421.55C114.36 421.72 114.4 421.845 114.479 421.924C114.564 421.998 114.704 422.034 114.9 422.034H115.494V423.113H114.689C113.61 423.113 113.071 422.589 113.071 421.54V419.099H112.467V418.048H113.071V416.795H114.36V418.048H115.494V419.099H114.36ZM117.064 417.444C116.838 417.444 116.649 417.374 116.497 417.234C116.351 417.088 116.277 416.908 116.277 416.694C116.277 416.481 116.351 416.304 116.497 416.164C116.649 416.018 116.838 415.945 117.064 415.945C117.289 415.945 117.475 416.018 117.622 416.164C117.774 416.304 117.85 416.481 117.85 416.694C117.85 416.908 117.774 417.088 117.622 417.234C117.475 417.374 117.289 417.444 117.064 417.444ZM117.695 418.048V423.113H116.415V418.048H117.695ZM120.239 416.347V423.113H118.959V416.347H120.239ZM124.357 417.974C124.741 417.974 125.082 418.06 125.381 418.23C125.68 418.395 125.911 418.642 126.076 418.971C126.247 419.294 126.332 419.684 126.332 420.141V423.113H125.052V420.315C125.052 419.913 124.951 419.605 124.75 419.392C124.549 419.172 124.275 419.063 123.927 419.063C123.574 419.063 123.293 419.172 123.086 419.392C122.885 419.605 122.784 419.913 122.784 420.315V423.113H121.504V416.347H122.784V418.679C122.949 418.459 123.168 418.288 123.443 418.166C123.717 418.038 124.022 417.974 124.357 417.974ZM127.22 420.562C127.22 420.05 127.321 419.596 127.522 419.2C127.729 418.803 128.006 418.499 128.354 418.285C128.707 418.072 129.101 417.965 129.533 417.965C129.911 417.965 130.24 418.042 130.521 418.194C130.807 418.346 131.036 418.538 131.207 418.77V418.048H132.496V423.113H131.207V422.372C131.042 422.61 130.813 422.808 130.521 422.967C130.234 423.119 129.902 423.195 129.524 423.195C129.098 423.195 128.707 423.086 128.354 422.866C128.006 422.647 127.729 422.339 127.522 421.943C127.321 421.54 127.22 421.08 127.22 420.562ZM131.207 420.58C131.207 420.269 131.146 420.004 131.024 419.785C130.902 419.559 130.737 419.389 130.53 419.273C130.323 419.151 130.1 419.09 129.863 419.09C129.625 419.09 129.405 419.148 129.204 419.264C129.003 419.38 128.838 419.55 128.71 419.776C128.589 419.995 128.528 420.257 128.528 420.562C128.528 420.867 128.589 421.135 128.71 421.367C128.838 421.592 129.003 421.766 129.204 421.888C129.411 422.01 129.631 422.071 129.863 422.071C130.1 422.071 130.323 422.013 130.53 421.897C130.737 421.775 130.902 421.604 131.024 421.385C131.146 421.159 131.207 420.891 131.207 420.58ZM135.026 418.834C135.191 418.566 135.404 418.355 135.666 418.203C135.934 418.051 136.239 417.974 136.581 417.974V419.319H136.242C135.84 419.319 135.535 419.413 135.328 419.602C135.127 419.791 135.026 420.12 135.026 420.59V423.113H133.746V418.048H135.026V418.834Z" fill="#01A5F0"/>
<path d="M56.8337 128.439C57.7896 128.439 58.6193 128.033 59.1694 127.384L58.5742 126.879C58.1593 127.366 57.5281 127.682 56.8337 127.682C55.526 127.682 54.4979 126.581 54.4979 125.256C54.4979 123.921 55.526 122.83 56.8337 122.83C57.5281 122.83 58.1593 123.146 58.5742 123.632L59.1694 123.127C58.6193 122.478 57.7896 122.072 56.8337 122.072C55.0751 122.072 53.6773 123.497 53.6773 125.256C53.6773 127.014 55.0751 128.439 56.8337 128.439ZM62.024 128.439C63.2235 128.439 64.2335 127.564 64.2335 126.23C64.2335 124.895 63.2235 124.047 62.024 124.047C60.8246 124.047 59.8236 124.895 59.8236 126.23C59.8236 127.564 60.8246 128.439 62.024 128.439ZM62.024 127.7C61.2575 127.7 60.6172 127.105 60.6172 126.23C60.6172 125.364 61.2575 124.787 62.024 124.787C62.7996 124.787 63.4489 125.364 63.4489 126.23C63.4489 127.105 62.7996 127.7 62.024 127.7ZM70.3219 124.047C69.8981 124.047 69.2307 124.174 68.852 124.922C68.6085 124.363 68.0764 124.047 67.4631 124.047C66.8679 124.047 66.3269 124.327 66.1104 124.778V124.138H65.3258V128.349H66.1104V126.067C66.1104 125.175 66.7056 124.805 67.3008 124.805C67.8599 124.805 68.2477 125.247 68.2477 125.959V128.349H69.0323V126.203L69.0413 126.239C68.9692 125.427 69.4201 124.796 70.1686 124.805C70.7818 124.805 71.1696 125.256 71.1696 125.959V128.349H71.9542V125.914C71.9542 124.733 71.377 124.047 70.3219 124.047ZM75.5424 124.047C74.9382 124.047 74.3249 124.318 74.0454 124.805V124.138H73.2608V130.396H74.0454V127.691C74.3249 128.187 74.9201 128.439 75.5514 128.439C76.7057 128.439 77.6527 127.582 77.6527 126.248C77.6527 124.922 76.6967 124.047 75.5424 124.047ZM75.4703 127.7C74.7849 127.7 74.0454 127.168 74.0454 126.257C74.0454 125.355 74.7217 124.787 75.4703 124.787C76.2458 124.787 76.8591 125.418 76.8591 126.257C76.8591 127.105 76.2458 127.7 75.4703 127.7ZM80.7224 124.047C80.1633 124.047 79.7575 124.354 79.5411 125.093V124.138H78.7475V128.349H79.5411V126.807C79.5411 125.698 79.8747 124.805 80.7134 124.805C80.8757 124.805 81.1012 124.841 81.3267 124.949L81.4529 124.21C81.3267 124.128 81.02 124.047 80.7224 124.047ZM84.0235 128.439C85.2229 128.439 86.233 127.564 86.233 126.23C86.233 124.895 85.2229 124.047 84.0235 124.047C82.8241 124.047 81.8231 124.895 81.8231 126.23C81.8231 127.564 82.8241 128.439 84.0235 128.439ZM84.0235 127.7C83.257 127.7 82.6167 127.105 82.6167 126.23C82.6167 125.364 83.257 124.787 84.0235 124.787C84.7991 124.787 85.4484 125.364 85.4484 126.23C85.4484 127.105 84.7991 127.7 84.0235 127.7ZM90.0964 124.138L88.8068 127.348L87.5082 124.138H86.6695L88.419 128.349H89.1856L90.9441 124.138H90.0964ZM94.986 124.138V124.796C94.7064 124.3 94.1112 124.047 93.4799 124.047C92.3256 124.047 91.3787 124.904 91.3787 126.239C91.3787 127.564 92.3346 128.439 93.489 128.439C94.0932 128.439 94.7064 128.169 94.986 127.682V128.349H95.7706V124.138H94.986ZM93.5521 127.7C92.7855 127.7 92.1723 127.068 92.1723 126.23C92.1723 125.382 92.7855 124.787 93.5521 124.787C94.2465 124.787 94.986 125.319 94.986 126.23C94.986 127.132 94.3096 127.7 93.5521 127.7ZM99.3273 124.047C98.8674 124.047 98.182 124.264 97.9295 124.778V124.138H97.1449V128.349H97.9295V126.067C97.9295 125.157 98.6329 124.823 99.2191 124.823C99.8053 124.823 100.238 125.256 100.238 125.959V128.349H101.023V125.914C101.032 124.733 100.373 124.047 99.3273 124.047ZM104.299 124.138H103.389V122.541H102.604V124.138H101.846V124.814H102.604V128.349H103.389V124.814H104.299V124.138ZM109.057 126.23C109.057 124.895 108.164 124.047 106.964 124.047C105.765 124.047 104.8 124.895 104.8 126.23C104.8 127.564 105.765 128.439 106.964 128.439C107.776 128.439 108.534 128.06 108.903 127.33L108.218 127.059C107.984 127.483 107.506 127.7 106.992 127.7C106.27 127.7 105.729 127.33 105.612 126.581H109.039C109.048 126.464 109.057 126.347 109.057 126.23ZM105.621 125.905C105.747 125.148 106.252 124.787 106.964 124.787C107.659 124.787 108.173 125.184 108.272 125.905H105.621ZM112.317 126.627H115.447V125.869H112.317V126.627ZM120.512 127.24L121.901 125.644C122.28 125.22 122.55 124.715 122.55 124.147C122.55 123.073 121.784 122.361 120.602 122.361C119.421 122.361 118.735 123.082 118.591 124.138L119.664 124.318C119.737 123.804 120.034 123.461 120.557 123.461C121.017 123.461 121.342 123.741 121.342 124.138C121.342 124.336 121.179 124.643 120.936 124.94L118.627 127.709V128.349H122.604V127.24H120.512ZM125.743 128.43C127.457 128.43 127.926 127.086 127.926 125.409C127.926 123.705 127.457 122.361 125.743 122.361C124.021 122.361 123.543 123.705 123.543 125.409C123.543 127.086 124.021 128.43 125.743 128.43ZM125.743 127.33C124.977 127.33 124.742 126.482 124.742 125.409C124.742 124.318 124.977 123.461 125.743 123.461C126.501 123.461 126.726 124.318 126.726 125.409C126.726 126.482 126.501 127.33 125.743 127.33ZM130.693 127.24L132.082 125.644C132.46 125.22 132.731 124.715 132.731 124.147C132.731 123.073 131.964 122.361 130.783 122.361C129.602 122.361 128.916 123.082 128.772 124.138L129.845 124.318C129.917 123.804 130.215 123.461 130.738 123.461C131.198 123.461 131.522 123.741 131.522 124.138C131.522 124.336 131.36 124.643 131.117 124.94L128.808 127.709V128.349H132.785V127.24H130.693ZM135.87 122.361C134.553 122.361 133.687 123.218 133.687 124.345C133.687 125.373 134.481 126.248 135.68 126.248C136.249 126.248 136.672 126.04 136.961 125.752C136.916 126.672 136.393 127.33 135.653 127.33C135.266 127.33 134.905 127.132 134.715 126.735L133.76 127.258C134.12 128.06 134.887 128.43 135.662 128.43C137.322 128.43 138.16 126.942 138.16 125.193C138.16 123.515 137.25 122.361 135.87 122.361ZM135.843 125.247C135.284 125.238 134.887 124.868 134.887 124.354C134.887 123.831 135.293 123.461 135.879 123.461C136.456 123.47 136.862 123.849 136.862 124.372C136.853 124.886 136.429 125.247 135.843 125.247ZM143.641 126.167H142.74V122.442H142.036L138.69 126.87V127.222H141.54V128.349H142.74V127.222H143.641V126.167ZM140.377 126.167L141.54 124.606V126.167H140.377ZM146.605 122.361C145.289 122.361 144.423 123.218 144.423 124.345C144.423 125.373 145.217 126.248 146.416 126.248C146.984 126.248 147.408 126.04 147.697 125.752C147.651 126.672 147.128 127.33 146.389 127.33C146.001 127.33 145.64 127.132 145.451 126.735L144.495 127.258C144.856 128.06 145.622 128.43 146.398 128.43C148.057 128.43 148.896 126.942 148.896 125.193C148.896 123.515 147.985 122.361 146.605 122.361ZM146.578 125.247C146.019 125.238 145.622 124.868 145.622 124.354C145.622 123.831 146.028 123.461 146.614 123.461C147.191 123.47 147.597 123.849 147.597 124.372C147.588 124.886 147.164 125.247 146.578 125.247ZM152.023 122.361L149.57 123.38V124.489L150.932 123.966V128.349H152.122V122.361H152.023ZM155.546 128.43C157.259 128.43 157.728 127.086 157.728 125.409C157.728 123.705 157.259 122.361 155.546 122.361C153.823 122.361 153.345 123.705 153.345 125.409C153.345 127.086 153.823 128.43 155.546 128.43ZM155.546 127.33C154.779 127.33 154.544 126.482 154.544 125.409C154.544 124.318 154.779 123.461 155.546 123.461C156.303 123.461 156.529 124.318 156.529 125.409C156.529 126.482 156.303 127.33 155.546 127.33Z" fill="#0073CE"/>
<path opacity="0.3" d="M31.6958 142.392H179.369" stroke="#855B35" stroke-width="0.751517"/>
<path opacity="0.3" d="M31.6958 244.598H179.369" stroke="#855B35" stroke-width="0.751517"/>
<path d="M73.1493 169.307H75.1258C76.6965 169.307 77.7862 168.315 77.7862 166.804C77.7862 165.294 76.6965 164.294 75.1258 164.294H73.1493V169.307ZM74.2165 168.367V165.234H75.1258C76.1554 165.234 76.6965 165.917 76.6965 166.804C76.6965 167.653 76.1178 168.367 75.1258 168.367H74.2165ZM78.5435 169.307H82.0907V168.382H79.6107V167.218H82.0381V166.301H79.6107V165.211H82.0907V164.294H78.5435V169.307ZM84.6072 166.804C84.6072 168.382 85.8097 169.404 87.2751 169.404C88.1845 169.404 88.8984 169.029 89.4094 168.458V166.541H87.0196V167.458H88.3573V168.067C88.1394 168.262 87.7336 168.45 87.2751 168.45C86.3658 168.45 85.7045 167.751 85.7045 166.804C85.7045 165.857 86.3658 165.158 87.2751 165.158C87.8012 165.158 88.2296 165.436 88.4625 165.79L89.3493 165.309C88.966 164.715 88.3122 164.211 87.2751 164.211C85.8097 164.211 84.6072 165.218 84.6072 166.804ZM90.2566 169.307H91.3238V164.294H90.2566V169.307ZM92.3189 169.307H95.5053V168.367H93.386V164.294H92.3189V169.307ZM96.2526 169.307H98.9731C99.9275 169.307 100.431 168.706 100.431 167.954C100.431 167.323 100.003 166.804 99.4691 166.722C99.9425 166.624 100.333 166.203 100.333 165.572C100.333 164.903 99.8448 164.294 98.8904 164.294H96.2526V169.307ZM97.3197 166.308V165.203H98.6574C99.0182 165.203 99.2436 165.444 99.2436 165.752C99.2436 166.075 99.0182 166.308 98.6574 166.308H97.3197ZM97.3197 168.397V167.218H98.695C99.1159 167.218 99.3413 167.488 99.3413 167.804C99.3413 168.164 99.1008 168.397 98.695 168.397H97.3197ZM101.236 169.307H104.783V168.382H102.303V167.218H104.73V166.301H102.303V165.211H104.783V164.294H101.236V169.307ZM108.45 169.307H109.675L108.548 167.398C109.089 167.27 109.645 166.797 109.645 165.91C109.645 164.978 109.007 164.294 107.962 164.294H105.617V169.307H106.684V167.511H107.466L108.45 169.307ZM108.556 165.902C108.556 166.323 108.232 166.594 107.804 166.594H106.684V165.211H107.804C108.232 165.211 108.556 165.482 108.556 165.902ZM111.53 169.307H112.605V165.234H114.063V164.294H110.065V165.234H111.53V169.307ZM114.323 166.804C114.323 168.315 115.428 169.397 116.938 169.397C118.456 169.397 119.561 168.315 119.561 166.804C119.561 165.294 118.456 164.211 116.938 164.211C115.428 164.211 114.323 165.294 114.323 166.804ZM118.464 166.804C118.464 167.736 117.863 168.45 116.938 168.45C116.014 168.45 115.42 167.736 115.42 166.804C115.42 165.865 116.014 165.158 116.938 165.158C117.863 165.158 118.464 165.865 118.464 166.804ZM122.233 169.307H123.3V167.511H124.577C125.66 167.511 126.261 166.782 126.261 165.91C126.261 165.031 125.667 164.294 124.577 164.294H122.233V169.307ZM125.171 165.902C125.171 166.323 124.856 166.594 124.435 166.594H123.3V165.211H124.435C124.856 165.211 125.171 165.489 125.171 165.902ZM129.756 169.307H130.981L129.853 167.398C130.394 167.27 130.951 166.797 130.951 165.91C130.951 164.978 130.312 164.294 129.267 164.294H126.922V169.307H127.99V167.511H128.771L129.756 169.307ZM129.861 165.902C129.861 166.323 129.538 166.594 129.109 166.594H127.99V165.211H129.109C129.538 165.211 129.861 165.482 129.861 165.902ZM135.261 169.307H136.426L134.495 164.294H133.157L131.218 169.307H132.39L132.706 168.442H134.945L135.261 169.307ZM133.826 165.218L134.652 167.518H132.991L133.826 165.218ZM136.889 169.307H138.865C140.436 169.307 141.526 168.315 141.526 166.804C141.526 165.294 140.436 164.294 138.865 164.294H136.889V169.307ZM137.956 168.367V165.234H138.865C139.895 165.234 140.436 165.917 140.436 166.804C140.436 167.653 139.857 168.367 138.865 168.367H137.956ZM142.042 166.804C142.042 168.315 143.147 169.397 144.658 169.397C146.176 169.397 147.281 168.315 147.281 166.804C147.281 165.294 146.176 164.211 144.658 164.211C143.147 164.211 142.042 165.294 142.042 166.804ZM146.183 166.804C146.183 167.736 145.582 168.45 144.658 168.45C143.733 168.45 143.14 167.736 143.14 166.804C143.14 165.865 143.733 165.158 144.658 165.158C145.582 165.158 146.183 165.865 146.183 166.804Z" fill="#855B35"/>
<path d="M73.1493 271.513H74.2165V269.717H75.4941C76.5762 269.717 77.1775 268.988 77.1775 268.116C77.1775 267.237 76.5838 266.5 75.4941 266.5H73.1493V271.513ZM76.0878 268.109C76.0878 268.53 75.7721 268.8 75.3513 268.8H74.2165V267.417H75.3513C75.7721 267.417 76.0878 267.695 76.0878 268.109ZM80.7908 271.513H81.9556L80.0242 266.5H78.6865L76.7476 271.513H77.92L78.2356 270.649H80.4751L80.7908 271.513ZM79.3554 267.425L80.182 269.724H78.5212L79.3554 267.425ZM85.2517 271.513H86.4767L85.3494 269.604C85.8905 269.476 86.4466 269.003 86.4466 268.116C86.4466 267.184 85.8079 266.5 84.7632 266.5H82.4185V271.513H83.4857V269.717H84.2672L85.2517 271.513ZM85.3569 268.109C85.3569 268.53 85.0338 268.8 84.6054 268.8H83.4857V267.417H84.6054C85.0338 267.417 85.3569 267.688 85.3569 268.109ZM90.7572 271.513H91.922L89.9906 266.5H88.6529L86.714 271.513H87.8864L88.202 270.649H90.4415L90.7572 271.513ZM89.3218 267.425L90.1485 269.724H88.4876L89.3218 267.425ZM96.6976 271.603C97.8399 271.603 98.4711 270.994 98.8319 270.371L97.915 269.927C97.7046 270.341 97.2537 270.656 96.6976 270.656C95.8258 270.656 95.1645 269.957 95.1645 269.01C95.1645 268.064 95.8258 267.365 96.6976 267.365C97.2537 267.365 97.7046 267.688 97.915 268.094L98.8319 267.643C98.4787 267.019 97.8399 266.418 96.6976 266.418C95.2321 266.418 94.0673 267.47 94.0673 269.01C94.0673 270.551 95.2321 271.603 96.6976 271.603ZM102.925 271.513H104.09L102.159 266.5H100.821L98.8821 271.513H100.054L100.37 270.649H102.61L102.925 271.513ZM101.49 267.425L102.317 269.724H100.656L101.49 267.425ZM107.386 271.513H108.611L107.484 269.604C108.025 269.476 108.581 269.003 108.581 268.116C108.581 267.184 107.942 266.5 106.898 266.5H104.553V271.513H105.62V269.717H106.402L107.386 271.513ZM107.491 268.109C107.491 268.53 107.168 268.8 106.74 268.8H105.62V267.417H106.74C107.168 267.417 107.491 267.688 107.491 268.109ZM109.142 269.01C109.142 270.521 110.246 271.603 111.757 271.603C113.275 271.603 114.38 270.521 114.38 269.01C114.38 267.5 113.275 266.418 111.757 266.418C110.246 266.418 109.142 267.5 109.142 269.01ZM113.282 269.01C113.282 269.942 112.681 270.656 111.757 270.656C110.833 270.656 110.239 269.942 110.239 269.01C110.239 268.071 110.833 267.365 111.757 267.365C112.681 267.365 113.282 268.071 113.282 269.01ZM115.129 271.513H118.315V270.574H116.196V266.5H115.129V271.513ZM124.495 271.513H125.66L123.728 266.5H122.39L120.452 271.513H121.624L121.94 270.649H124.179L124.495 271.513ZM123.059 267.425L123.886 269.724H122.225L123.059 267.425ZM128.956 271.513H130.181L129.053 269.604C129.594 269.476 130.151 269.003 130.151 268.116C130.151 267.184 129.512 266.5 128.467 266.5H126.122V271.513H127.19V269.717H127.971L128.956 271.513ZM129.061 268.109C129.061 268.53 128.738 268.8 128.309 268.8H127.19V267.417H128.309C128.738 267.417 129.061 267.688 129.061 268.109ZM134.461 271.513H135.626L133.695 266.5H132.357L130.418 271.513H131.59L131.906 270.649H134.145L134.461 271.513ZM133.026 267.425L133.852 269.724H132.192L133.026 267.425ZM138.394 266.08L139.612 264.997H138.733L137.726 266.08H138.394ZM135.839 269.514C135.839 270.746 136.553 271.603 138.086 271.603C139.604 271.603 140.318 270.754 140.318 269.506V266.5H139.236V269.476C139.236 270.175 138.853 270.656 138.086 270.656C137.305 270.656 136.921 270.175 136.921 269.476V266.5H135.839V269.514ZM140.658 271.115C141.019 271.468 141.5 271.603 142.003 271.603C143.033 271.603 143.769 271.055 143.769 269.867V266.5H142.702V269.852C142.702 270.341 142.394 270.656 141.92 270.656C141.575 270.656 141.319 270.483 141.124 270.296L140.658 271.115ZM144.523 269.01C144.523 270.521 145.628 271.603 147.138 271.603C148.656 271.603 149.761 270.521 149.761 269.01C149.761 267.5 148.656 266.418 147.138 266.418C145.628 266.418 144.523 267.5 144.523 269.01ZM148.664 269.01C148.664 269.942 148.063 270.656 147.138 270.656C146.214 270.656 145.62 269.942 145.62 269.01C145.62 268.071 146.214 267.365 147.138 267.365C148.063 267.365 148.664 268.071 148.664 269.01Z" fill="#855B35"/>
<path d="M33.7775 196.113H34.5516L36.5731 191.1H35.8592L34.1683 195.429L32.4774 191.1H31.7634L33.7775 196.113ZM38.9985 196.113H39.5621V193.618C39.5621 192.739 38.9233 192.393 38.1568 192.393C37.5631 192.393 37.0972 192.588 36.7064 192.994L36.9694 193.385C37.2925 193.039 37.6458 192.881 38.0816 192.881C38.6077 192.881 38.9985 193.159 38.9985 193.648V194.302C38.7054 193.963 38.2921 193.806 37.7961 193.806C37.1798 193.806 36.526 194.189 36.526 195.001C36.526 195.79 37.1798 196.203 37.7961 196.203C38.2845 196.203 38.6979 196.03 38.9985 195.699V196.113ZM38.9985 195.346C38.7805 195.647 38.3973 195.797 37.999 195.797C37.4729 195.797 37.1047 195.467 37.1047 195.008C37.1047 194.542 37.4729 194.211 37.999 194.211C38.3973 194.211 38.7805 194.362 38.9985 194.662V195.346ZM40.692 196.113H41.2556V191.1H40.692V196.113ZM43.9657 196.203C45.0704 196.203 45.7618 195.346 45.7618 194.294C45.7618 193.242 45.0704 192.393 43.9657 192.393C42.8609 192.393 42.1695 193.242 42.1695 194.294C42.1695 195.346 42.8609 196.203 43.9657 196.203ZM43.9657 195.699C43.1916 195.699 42.7557 195.038 42.7557 194.294C42.7557 193.558 43.1916 192.896 43.9657 192.896C44.7397 192.896 45.1681 193.558 45.1681 194.294C45.1681 195.038 44.7397 195.699 43.9657 195.699ZM46.6806 196.113H47.2443V193.543C47.4096 193.25 47.8831 192.964 48.2288 192.964C48.3189 192.964 48.3866 192.971 48.4542 192.987V192.408C47.9582 192.408 47.5374 192.686 47.2443 193.069V192.483H46.6806V196.113ZM32.282 212.113H34.5666C35.4834 212.113 36.017 211.564 36.017 210.76C36.017 210.159 35.5736 209.61 35.04 209.528C35.4985 209.43 35.9193 209.009 35.9193 208.378C35.9193 207.626 35.3857 207.1 34.514 207.1H32.282V212.113ZM32.9057 209.272V207.656H34.4088C34.9724 207.656 35.273 208.017 35.273 208.468C35.273 208.926 34.9724 209.272 34.4088 209.272H32.9057ZM32.9057 211.557V209.828H34.4388C35.0551 209.828 35.3707 210.234 35.3707 210.692C35.3707 211.226 35.025 211.557 34.4388 211.557H32.9057ZM39.2554 212.113H39.819V209.618C39.819 208.739 39.1802 208.393 38.4137 208.393C37.82 208.393 37.354 208.588 36.9632 208.994L37.2263 209.385C37.5494 209.039 37.9026 208.881 38.3385 208.881C38.8646 208.881 39.2554 209.159 39.2554 209.648V210.302C38.9623 209.963 38.5489 209.806 38.0529 209.806C37.4367 209.806 36.7829 210.189 36.7829 211.001C36.7829 211.79 37.4367 212.203 38.0529 212.203C38.5414 212.203 38.9547 212.03 39.2554 211.699V212.113ZM39.2554 211.346C39.0374 211.647 38.6541 211.797 38.2558 211.797C37.7298 211.797 37.3615 211.467 37.3615 211.008C37.3615 210.542 37.7298 210.211 38.2558 210.211C38.6541 210.211 39.0374 210.362 39.2554 210.662V211.346ZM43.3988 212.113H43.9624V209.565C43.9624 208.776 43.5641 208.393 42.8051 208.393C42.264 208.393 41.768 208.708 41.5125 209.009V208.483H40.9488V212.113H41.5125V209.46C41.7229 209.167 42.1438 208.896 42.5872 208.896C43.0756 208.896 43.3988 209.099 43.3988 209.738V212.113ZM44.8776 210.294C44.8776 211.376 45.6066 212.203 46.6888 212.203C47.3501 212.203 47.7409 211.932 48.019 211.572L47.6432 211.226C47.4027 211.549 47.0946 211.699 46.7189 211.699C45.9448 211.699 45.4638 211.098 45.4638 210.294C45.4638 209.49 45.9448 208.896 46.7189 208.896C47.0946 208.896 47.4027 209.039 47.6432 209.37L48.019 209.024C47.7409 208.663 47.3501 208.393 46.6888 208.393C45.6066 208.393 44.8776 209.219 44.8776 210.294ZM50.3946 212.203C51.4994 212.203 52.1908 211.346 52.1908 210.294C52.1908 209.242 51.4994 208.393 50.3946 208.393C49.2899 208.393 48.5985 209.242 48.5985 210.294C48.5985 211.346 49.2899 212.203 50.3946 212.203ZM50.3946 211.699C49.6206 211.699 49.1847 211.038 49.1847 210.294C49.1847 209.558 49.6206 208.896 50.3946 208.896C51.1687 208.896 51.5971 209.558 51.5971 210.294C51.5971 211.038 51.1687 211.699 50.3946 211.699ZM52.9969 208.844C52.9969 209.069 53.1848 209.257 53.4102 209.257C53.6357 209.257 53.8236 209.069 53.8236 208.844C53.8236 208.618 53.6357 208.43 53.4102 208.43C53.1848 208.43 52.9969 208.618 52.9969 208.844ZM52.9969 211.775C52.9969 212 53.1848 212.188 53.4102 212.188C53.6357 212.188 53.8236 212 53.8236 211.775C53.8236 211.549 53.6357 211.361 53.4102 211.361C53.1848 211.361 52.9969 211.549 52.9969 211.775ZM35.8817 228.113H36.5731L34.5516 223.1H33.7775L31.7634 228.113H32.4548L32.8982 227.001H35.4384L35.8817 228.113ZM34.1683 223.656L35.2505 226.444H33.0786L34.1683 223.656ZM37.1984 229.045C37.6268 229.466 38.0476 229.586 38.6639 229.586C39.5507 229.586 40.3924 229.21 40.3924 228.008V224.483H39.8287V225.032C39.5356 224.633 39.0998 224.393 38.6113 224.393C37.6569 224.393 36.9955 225.114 36.9955 226.279C36.9955 227.451 37.6644 228.158 38.6113 228.158C39.1223 228.158 39.5657 227.88 39.8287 227.512V228.03C39.8287 228.827 39.2651 229.12 38.6639 229.12C38.1453 229.12 37.7846 228.985 37.484 228.624L37.1984 229.045ZM39.8287 227.068C39.6333 227.384 39.1975 227.662 38.7466 227.662C38.0176 227.662 37.5817 227.076 37.5817 226.279C37.5817 225.475 38.0176 224.896 38.7466 224.896C39.1975 224.896 39.6333 225.167 39.8287 225.483V227.068ZM43.7157 223.934H44.099L43.3625 222.852H42.8214L42.1075 223.934H42.4908L43.092 223.138L43.7157 223.934ZM41.3109 226.294C41.3109 227.429 42.0849 228.203 43.1596 228.203C43.7533 228.203 44.2418 228.008 44.6025 227.647L44.332 227.279C44.0464 227.572 43.6255 227.737 43.2122 227.737C42.4306 227.737 41.9497 227.166 41.9046 226.482H44.843V226.339C44.843 225.25 44.1967 224.393 43.0995 224.393C42.0624 224.393 41.3109 225.242 41.3109 226.294ZM43.092 224.859C43.9186 224.859 44.2794 225.528 44.2869 226.069H41.9046C41.9346 225.513 42.3179 224.859 43.092 224.859ZM48.2059 228.113H48.7695V225.565C48.7695 224.776 48.3712 224.393 47.6122 224.393C47.0711 224.393 46.5751 224.708 46.3196 225.009V224.483H45.7559V228.113H46.3196V225.46C46.53 225.167 46.9508 224.896 47.3942 224.896C47.8827 224.896 48.2059 225.099 48.2059 225.738V228.113ZM49.6847 226.294C49.6847 227.376 50.4137 228.203 51.4959 228.203C52.1572 228.203 52.548 227.932 52.826 227.572L52.4503 227.226C52.2098 227.549 51.9017 227.699 51.5259 227.699C50.7519 227.699 50.2709 227.098 50.2709 226.294C50.2709 225.49 50.7519 224.896 51.5259 224.896C51.9017 224.896 52.2098 225.039 52.4503 225.37L52.826 225.024C52.548 224.663 52.1572 224.393 51.4959 224.393C50.4137 224.393 49.6847 225.219 49.6847 226.294ZM53.8941 223.874C54.1045 223.874 54.2773 223.701 54.2773 223.491C54.2773 223.281 54.1045 223.115 53.8941 223.115C53.6912 223.115 53.5183 223.281 53.5183 223.491C53.5183 223.701 53.6912 223.874 53.8941 223.874ZM53.616 228.113H54.1797V224.483H53.616V228.113ZM57.5736 228.113H58.1372V225.618C58.1372 224.739 57.4984 224.393 56.7319 224.393C56.1382 224.393 55.6722 224.588 55.2814 224.994L55.5445 225.385C55.8676 225.039 56.2208 224.881 56.6567 224.881C57.1828 224.881 57.5736 225.159 57.5736 225.648V226.302C57.2805 225.963 56.8671 225.806 56.3711 225.806C55.7549 225.806 55.1011 226.189 55.1011 227.001C55.1011 227.79 55.7549 228.203 56.3711 228.203C56.8596 228.203 57.273 228.03 57.5736 227.699V228.113ZM57.5736 227.346C57.3556 227.647 56.9724 227.797 56.5741 227.797C56.048 227.797 55.6798 227.467 55.6798 227.008C55.6798 226.542 56.048 226.211 56.5741 226.211C56.9724 226.211 57.3556 226.362 57.5736 226.662V227.346ZM59.1543 224.844C59.1543 225.069 59.3422 225.257 59.5677 225.257C59.7931 225.257 59.981 225.069 59.981 224.844C59.981 224.618 59.7931 224.43 59.5677 224.43C59.3422 224.43 59.1543 224.618 59.1543 224.844ZM59.1543 227.775C59.1543 228 59.3422 228.188 59.5677 228.188C59.7931 228.188 59.981 228 59.981 227.775C59.981 227.549 59.7931 227.361 59.5677 227.361C59.3422 227.361 59.1543 227.549 59.1543 227.775Z" fill="#855B35"/>
<path d="M35.0097 297.282C35.9191 297.282 36.5203 296.861 36.9411 296.29L36.4075 295.997C36.122 296.425 35.6034 296.726 35.0097 296.726C33.9351 296.726 33.1009 295.877 33.1009 294.689C33.1009 293.494 33.9351 292.653 35.0097 292.653C35.6034 292.653 36.122 292.961 36.4075 293.382L36.9336 293.088C36.5353 292.525 35.9191 292.096 35.0097 292.096C33.5894 292.096 32.4546 293.149 32.4546 294.689C32.4546 296.23 33.5894 297.282 35.0097 297.282ZM37.7361 297.192H38.3598V295.2H39.7501C40.7421 295.2 41.3208 294.509 41.3208 293.69C41.3208 292.871 40.7572 292.179 39.7501 292.179H37.7361V297.192ZM40.6745 293.69C40.6745 294.253 40.2687 294.644 39.675 294.644H38.3598V292.735H39.675C40.2687 292.735 40.6745 293.126 40.6745 293.69ZM42.1468 297.192H42.7706V294.907H45.3784V294.351H42.7706V292.735H45.431V292.179H42.1468V297.192ZM46.1434 293.923C46.1434 294.148 46.3313 294.336 46.5568 294.336C46.7822 294.336 46.9701 294.148 46.9701 293.923C46.9701 293.697 46.7822 293.509 46.5568 293.509C46.3313 293.509 46.1434 293.697 46.1434 293.923ZM46.1434 296.854C46.1434 297.079 46.3313 297.267 46.5568 297.267C46.7822 297.267 46.9701 297.079 46.9701 296.854C46.9701 296.628 46.7822 296.44 46.5568 296.44C46.3313 296.44 46.1434 296.628 46.1434 296.854ZM32.6575 313.192H34.9421C35.8589 313.192 36.3925 312.643 36.3925 311.839C36.3925 311.238 35.9491 310.689 35.4155 310.607C35.874 310.509 36.2948 310.088 36.2948 309.457C36.2948 308.705 35.7612 308.179 34.8895 308.179H32.6575V313.192ZM33.2812 310.351V308.735H34.7843C35.3479 308.735 35.6485 309.096 35.6485 309.547C35.6485 310.005 35.3479 310.351 34.7843 310.351H33.2812ZM33.2812 312.636V310.907H34.8143C35.4306 310.907 35.7462 311.313 35.7462 311.771C35.7462 312.305 35.4005 312.636 34.8143 312.636H33.2812ZM39.6308 313.192H40.1945V310.697C40.1945 309.817 39.5557 309.472 38.7891 309.472C38.1954 309.472 37.7295 309.667 37.3387 310.073L37.6017 310.464C37.9249 310.118 38.2781 309.96 38.714 309.96C39.2401 309.96 39.6308 310.238 39.6308 310.727V311.381C39.3378 311.042 38.9244 310.885 38.4284 310.885C37.8122 310.885 37.1584 311.268 37.1584 312.079C37.1584 312.869 37.8122 313.282 38.4284 313.282C38.9169 313.282 39.3302 313.109 39.6308 312.778V313.192ZM39.6308 312.425C39.4129 312.726 39.0296 312.876 38.6313 312.876C38.1053 312.876 37.737 312.545 37.737 312.087C37.737 311.621 38.1053 311.29 38.6313 311.29C39.0296 311.29 39.4129 311.441 39.6308 311.741V312.425ZM43.7743 313.192H44.3379V310.644C44.3379 309.855 43.9396 309.472 43.1806 309.472C42.6395 309.472 42.1435 309.787 41.888 310.088V309.562H41.3243V313.192H41.888V310.539C42.0984 310.246 42.5192 309.975 42.9626 309.975C43.4511 309.975 43.7743 310.178 43.7743 310.817V313.192ZM45.2531 311.373C45.2531 312.455 45.9821 313.282 47.0643 313.282C47.7256 313.282 48.1164 313.011 48.3945 312.651L48.0187 312.305C47.7782 312.628 47.4701 312.778 47.0943 312.778C46.3203 312.778 45.8393 312.177 45.8393 311.373C45.8393 310.569 46.3203 309.975 47.0943 309.975C47.4701 309.975 47.7782 310.118 48.0187 310.449L48.3945 310.103C48.1164 309.742 47.7256 309.472 47.0643 309.472C45.9821 309.472 45.2531 310.298 45.2531 311.373ZM50.7701 313.282C51.8749 313.282 52.5663 312.425 52.5663 311.373C52.5663 310.321 51.8749 309.472 50.7701 309.472C49.6654 309.472 48.974 310.321 48.974 311.373C48.974 312.425 49.6654 313.282 50.7701 313.282ZM50.7701 312.778C49.9961 312.778 49.5602 312.117 49.5602 311.373C49.5602 310.637 49.9961 309.975 50.7701 309.975C51.5442 309.975 51.9726 310.637 51.9726 311.373C51.9726 312.117 51.5442 312.778 50.7701 312.778ZM53.3724 309.923C53.3724 310.148 53.5603 310.336 53.7857 310.336C54.0112 310.336 54.199 310.148 54.199 309.923C54.199 309.697 54.0112 309.509 53.7857 309.509C53.5603 309.509 53.3724 309.697 53.3724 309.923ZM53.3724 312.854C53.3724 313.079 53.5603 313.267 53.7857 313.267C54.0112 313.267 54.199 313.079 54.199 312.854C54.199 312.628 54.0112 312.44 53.7857 312.44C53.5603 312.44 53.3724 312.628 53.3724 312.854ZM36.2572 329.192H36.9486L34.9271 324.179H34.153L32.1389 329.192H32.8303L33.2737 328.079H35.8138L36.2572 329.192ZM34.5438 324.735L35.626 327.523H33.4541L34.5438 324.735ZM37.5739 330.124C38.0023 330.544 38.4231 330.665 39.0394 330.665C39.9262 330.665 40.7679 330.289 40.7679 329.087V325.562H40.2042V326.111C39.9111 325.712 39.4753 325.472 38.9868 325.472C38.0323 325.472 37.371 326.193 37.371 327.358C37.371 328.53 38.0399 329.237 38.9868 329.237C39.4978 329.237 39.9412 328.959 40.2042 328.591V329.109C40.2042 329.906 39.6406 330.199 39.0394 330.199C38.5208 330.199 38.1601 330.064 37.8595 329.703L37.5739 330.124ZM40.2042 328.147C40.0088 328.463 39.573 328.741 39.122 328.741C38.3931 328.741 37.9572 328.155 37.9572 327.358C37.9572 326.554 38.3931 325.975 39.122 325.975C39.573 325.975 40.0088 326.246 40.2042 326.561V328.147ZM44.0912 325.013H44.4745L43.738 323.931H43.1969L42.483 325.013H42.8662L43.4675 324.217L44.0912 325.013ZM41.6864 327.373C41.6864 328.508 42.4604 329.282 43.5351 329.282C44.1288 329.282 44.6173 329.087 44.978 328.726L44.7075 328.358C44.4219 328.651 44.001 328.816 43.5877 328.816C42.8061 328.816 42.3251 328.245 42.2801 327.561H45.2185V327.418C45.2185 326.328 44.5722 325.472 43.475 325.472C42.4379 325.472 41.6864 326.321 41.6864 327.373ZM43.4675 325.938C44.2941 325.938 44.6548 326.607 44.6624 327.148H42.2801C42.3101 326.591 42.6934 325.938 43.4675 325.938ZM48.5813 329.192H49.145V326.644C49.145 325.855 48.7467 325.472 47.9876 325.472C47.4466 325.472 46.9506 325.787 46.695 326.088V325.562H46.1314V329.192H46.695V326.539C46.9055 326.246 47.3263 325.975 47.7697 325.975C48.2582 325.975 48.5813 326.178 48.5813 326.817V329.192ZM50.0602 327.373C50.0602 328.455 50.7892 329.282 51.8713 329.282C52.5327 329.282 52.9235 329.011 53.2015 328.651L52.8258 328.305C52.5853 328.628 52.2772 328.778 51.9014 328.778C51.1273 328.778 50.6464 328.177 50.6464 327.373C50.6464 326.569 51.1273 325.975 51.9014 325.975C52.2772 325.975 52.5853 326.118 52.8258 326.449L53.2015 326.103C52.9235 325.742 52.5327 325.472 51.8713 325.472C50.7892 325.472 50.0602 326.298 50.0602 327.373ZM54.2696 324.953C54.48 324.953 54.6528 324.78 54.6528 324.57C54.6528 324.359 54.48 324.194 54.2696 324.194C54.0667 324.194 53.8938 324.359 53.8938 324.57C53.8938 324.78 54.0667 324.953 54.2696 324.953ZM53.9915 329.192H54.5551V325.562H53.9915V329.192ZM57.9491 329.192H58.5127V326.697C58.5127 325.817 57.8739 325.472 57.1074 325.472C56.5137 325.472 56.0477 325.667 55.6569 326.073L55.92 326.464C56.2431 326.118 56.5963 325.96 57.0322 325.96C57.5583 325.96 57.9491 326.238 57.9491 326.727V327.381C57.656 327.042 57.2426 326.885 56.7466 326.885C56.1304 326.885 55.4766 327.268 55.4766 328.079C55.4766 328.869 56.1304 329.282 56.7466 329.282C57.2351 329.282 57.6485 329.109 57.9491 328.778V329.192ZM57.9491 328.425C57.7311 328.726 57.3478 328.876 56.9495 328.876C56.4235 328.876 56.0552 328.545 56.0552 328.087C56.0552 327.621 56.4235 327.29 56.9495 327.29C57.3478 327.29 57.7311 327.441 57.9491 327.741V328.425ZM59.5298 325.923C59.5298 326.148 59.7177 326.336 59.9432 326.336C60.1686 326.336 60.3565 326.148 60.3565 325.923C60.3565 325.697 60.1686 325.509 59.9432 325.509C59.7177 325.509 59.5298 325.697 59.5298 325.923ZM59.5298 328.854C59.5298 329.079 59.7177 329.267 59.9432 329.267C60.1686 329.267 60.3565 329.079 60.3565 328.854C60.3565 328.628 60.1686 328.44 59.9432 328.44C59.7177 328.44 59.5298 328.628 59.5298 328.854Z" fill="#855B35"/>
<path d="M76.0953 196.113H76.967L75.6819 194.106C76.3207 194.024 76.9294 193.543 76.9294 192.641C76.9294 191.716 76.2756 191.1 75.3212 191.1H73.2094V196.113H73.961V194.181H74.9004L76.0953 196.113ZM76.1554 192.641C76.1554 193.167 75.7646 193.52 75.2235 193.52H73.961V191.762H75.2235C75.7646 191.762 76.1554 192.115 76.1554 192.641ZM81.4623 194.692C81.4623 193.693 80.6357 193.407 79.8541 193.197V191.731C80.2524 191.799 80.6206 191.979 80.9062 192.28L81.3496 191.724C80.9738 191.341 80.4778 191.1 79.8541 191.04V190.341H79.3205V191.033C78.3886 191.1 77.7498 191.679 77.7498 192.453C77.7498 193.4 78.554 193.678 79.3205 193.873V195.512C78.7569 195.444 78.3135 195.151 78.0204 194.828L77.592 195.406C77.9753 195.835 78.5464 196.143 79.3205 196.195V196.864H79.8541V196.188C80.9964 196.098 81.4623 195.414 81.4623 194.692ZM78.5239 192.4C78.5239 192.01 78.8395 191.739 79.3205 191.701V193.054C78.8696 192.926 78.5239 192.761 78.5239 192.4ZM79.8541 195.512V194.016C80.3275 194.159 80.6958 194.332 80.6958 194.76C80.6958 195.076 80.4703 195.444 79.8541 195.512ZM83.9306 195.384C84.2538 195.835 84.9001 196.203 85.7719 196.203C86.9067 196.203 87.6056 195.594 87.6056 194.753C87.6056 193.963 86.9142 193.573 86.4407 193.528C86.9367 193.437 87.5304 193.069 87.5304 192.37C87.5304 191.529 86.7939 191.025 85.7719 191.025C84.9677 191.025 84.374 191.363 83.9983 191.807L84.3966 192.273C84.7648 191.897 85.1782 191.694 85.7042 191.694C86.2979 191.694 86.7789 191.964 86.7789 192.475C86.7789 192.994 86.2829 193.219 85.6742 193.219C85.4788 193.219 85.2157 193.219 85.1331 193.212V193.896C85.2082 193.888 85.4713 193.888 85.6742 193.888C86.4031 193.888 86.854 194.121 86.854 194.677C86.854 195.203 86.4407 195.534 85.7493 195.534C85.1857 195.534 84.6671 195.279 84.3515 194.895L83.9306 195.384ZM88.4054 195.722C88.4054 195.978 88.6158 196.195 88.8713 196.195C89.1269 196.195 89.3448 195.978 89.3448 195.722C89.3448 195.467 89.1269 195.256 88.8713 195.256C88.6158 195.256 88.4054 195.467 88.4054 195.722ZM90.1661 196.113H93.6982V195.451H91.361C92.7363 194.392 93.6756 193.513 93.6756 192.536C93.6756 191.536 92.8264 191.025 91.9246 191.025C91.2257 191.025 90.5418 191.303 90.1285 191.822L90.5719 192.31C90.88 191.942 91.3384 191.694 91.9321 191.694C92.4206 191.694 92.9091 191.949 92.9091 192.536C92.9091 193.325 92.0449 194.076 90.1661 195.519V196.113ZM94.5611 193.61C94.5611 194.85 95.1322 196.203 96.5225 196.203C97.9129 196.203 98.484 194.85 98.484 193.61C98.484 192.37 97.9129 191.025 96.5225 191.025C95.1322 191.025 94.5611 192.37 94.5611 193.61ZM97.7175 193.61C97.7175 194.587 97.4093 195.534 96.5225 195.534C95.6358 195.534 95.3276 194.587 95.3276 193.61C95.3276 192.633 95.6358 191.694 96.5225 191.694C97.4093 191.694 97.7175 192.633 97.7175 193.61ZM99.1773 193.61C99.1773 194.85 99.7485 196.203 101.139 196.203C102.529 196.203 103.1 194.85 103.1 193.61C103.1 192.37 102.529 191.025 101.139 191.025C99.7485 191.025 99.1773 192.37 99.1773 193.61ZM102.334 193.61C102.334 194.587 102.026 195.534 101.139 195.534C100.252 195.534 99.9439 194.587 99.9439 193.61C99.9439 192.633 100.252 191.694 101.139 191.694C102.026 191.694 102.334 192.633 102.334 193.61ZM103.979 197.09C104.362 196.819 104.64 196.368 104.64 195.88C104.64 195.482 104.392 195.256 104.114 195.256C103.859 195.256 103.656 195.459 103.656 195.715C103.656 195.963 103.829 196.143 104.062 196.143C104.099 196.143 104.159 196.128 104.174 196.128C104.137 196.376 103.904 196.676 103.663 196.827L103.979 197.09ZM105.371 193.61C105.371 194.85 105.943 196.203 107.333 196.203C108.723 196.203 109.294 194.85 109.294 193.61C109.294 192.37 108.723 191.025 107.333 191.025C105.943 191.025 105.371 192.37 105.371 193.61ZM108.528 193.61C108.528 194.587 108.22 195.534 107.333 195.534C106.446 195.534 106.138 194.587 106.138 193.61C106.138 192.633 106.446 191.694 107.333 191.694C108.22 191.694 108.528 192.633 108.528 193.61ZM109.988 193.61C109.988 194.85 110.559 196.203 111.949 196.203C113.339 196.203 113.911 194.85 113.911 193.61C113.911 192.37 113.339 191.025 111.949 191.025C110.559 191.025 109.988 192.37 109.988 193.61ZM113.144 193.61C113.144 194.587 112.836 195.534 111.949 195.534C111.062 195.534 110.754 194.587 110.754 193.61C110.754 192.633 111.062 191.694 111.949 191.694C112.836 191.694 113.144 192.633 113.144 193.61ZM72.999 209.618C72.999 210.993 73.5627 212.203 74.9981 212.203C76.1028 212.203 76.8017 211.444 76.8017 210.542C76.8017 209.475 76.0427 208.934 75.1408 208.934C74.5246 208.934 73.9835 209.332 73.7656 209.67C73.758 209.618 73.758 209.565 73.758 209.505C73.758 208.573 74.2165 207.694 75.1258 207.694C75.6218 207.694 75.9149 207.882 76.1704 208.175L76.5387 207.604C76.2155 207.258 75.7571 207.025 75.1258 207.025C73.6904 207.025 72.999 208.212 72.999 209.618ZM76.0427 210.565C76.0427 211.008 75.6819 211.534 74.9605 211.534C74.1413 211.534 73.8332 210.835 73.7731 210.249C74.0361 209.851 74.487 209.58 74.953 209.58C75.5467 209.58 76.0427 209.896 76.0427 210.565ZM77.5886 211.414C77.9793 211.902 78.5505 212.203 79.4072 212.203C80.4669 212.203 81.2484 211.557 81.2484 210.527C81.2484 209.498 80.4894 208.919 79.6477 208.919C79.1592 208.919 78.7384 209.122 78.4979 209.362V207.762H80.9178V207.1H77.7464V209.851L78.2875 210.024C78.6181 209.708 78.9789 209.573 79.4147 209.573C80.061 209.573 80.4894 209.956 80.4894 210.557C80.4894 211.106 80.0535 211.534 79.3997 211.534C78.8135 211.534 78.3626 211.309 78.0319 210.903L77.5886 211.414ZM82.058 211.414C82.4488 211.902 83.02 212.203 83.8767 212.203C84.9363 212.203 85.7179 211.557 85.7179 210.527C85.7179 209.498 84.9589 208.919 84.1172 208.919C83.6287 208.919 83.2078 209.122 82.9674 209.362V207.762H85.3872V207.1H82.2158V209.851L82.7569 210.024C83.0876 209.708 83.4483 209.573 83.8842 209.573C84.5305 209.573 84.9589 209.956 84.9589 210.557C84.9589 211.106 84.523 211.534 83.8692 211.534C83.283 211.534 82.8321 211.309 82.5014 210.903L82.058 211.414ZM90.1695 210.587H91.9732V210.001H90.1695V210.587ZM94.6908 212.113H97.1032C98.0275 212.113 98.5536 211.549 98.5536 210.76C98.5536 210.151 98.1177 209.61 97.5841 209.528C98.0425 209.43 98.4559 209.009 98.4559 208.378C98.4559 207.649 97.9373 207.1 97.043 207.1H94.6908V212.113ZM95.4423 209.227V207.762H96.9002C97.4038 207.762 97.6818 208.085 97.6818 208.498C97.6818 208.911 97.4038 209.227 96.9002 209.227H95.4423ZM95.4423 211.451V209.888H96.9378C97.4939 209.888 97.7795 210.249 97.7795 210.662C97.7795 211.151 97.4639 211.451 96.9378 211.451H95.4423ZM101.708 212.113H102.384V209.663C102.384 208.739 101.715 208.393 100.926 208.393C100.34 208.393 99.8439 208.588 99.4381 208.987L99.7312 209.452C100.054 209.129 100.408 208.971 100.821 208.971C101.339 208.971 101.708 209.242 101.708 209.693V210.294C101.43 209.971 101.009 209.813 100.52 209.813C99.9115 209.813 99.2577 210.174 99.2577 211.001C99.2577 211.797 99.919 212.203 100.52 212.203C101.009 212.203 101.422 212.03 101.708 211.715V212.113ZM101.708 211.316C101.505 211.587 101.152 211.73 100.776 211.73C100.287 211.73 99.9416 211.436 99.9416 211.008C99.9416 210.58 100.287 210.287 100.776 210.287C101.152 210.287 101.505 210.429 101.708 210.7V211.316ZM105.918 212.113H106.594V209.565C106.594 208.799 106.196 208.393 105.429 208.393C104.866 208.393 104.385 208.701 104.144 208.994V208.483H103.468V212.113H104.144V209.52C104.34 209.25 104.723 208.994 105.144 208.994C105.61 208.994 105.918 209.189 105.918 209.791V212.113ZM107.44 210.294C107.44 211.384 108.192 212.203 109.289 212.203C109.973 212.203 110.386 211.917 110.649 211.564L110.198 211.151C109.981 211.451 109.687 211.602 109.319 211.602C108.605 211.602 108.147 211.046 108.147 210.294C108.147 209.543 108.605 208.994 109.319 208.994C109.687 208.994 109.981 209.137 110.198 209.445L110.649 209.032C110.386 208.678 109.973 208.393 109.289 208.393C108.192 208.393 107.44 209.204 107.44 210.294ZM113.002 212.203C114.137 212.203 114.836 211.346 114.836 210.294C114.836 209.25 114.137 208.393 113.002 208.393C111.875 208.393 111.169 209.25 111.169 210.294C111.169 211.346 111.875 212.203 113.002 212.203ZM113.002 211.602C112.281 211.602 111.875 210.986 111.875 210.294C111.875 209.61 112.281 208.994 113.002 208.994C113.731 208.994 114.13 209.61 114.13 210.294C114.13 210.986 113.731 211.602 113.002 211.602ZM119.12 212.113H120.06L122.051 207.1H121.194L119.586 211.294L117.985 207.1H117.129L119.12 212.113ZM123.798 212.203C124.933 212.203 125.632 211.346 125.632 210.294C125.632 209.25 124.933 208.393 123.798 208.393C122.671 208.393 121.964 209.25 121.964 210.294C121.964 211.346 122.671 212.203 123.798 212.203ZM123.798 211.602C123.077 211.602 122.671 210.986 122.671 210.294C122.671 209.61 123.077 208.994 123.798 208.994C124.527 208.994 124.925 209.61 124.925 210.294C124.925 210.986 124.527 211.602 123.798 211.602ZM127.49 212.203C127.843 212.203 128.054 212.105 128.196 211.97L128.024 211.459C127.956 211.534 127.813 211.602 127.655 211.602C127.422 211.602 127.302 211.414 127.302 211.158V209.077H128.039V208.483H127.302V207.491H126.626V208.483H126.025V209.077H126.626V211.309C126.626 211.88 126.919 212.203 127.49 212.203ZM130.396 212.203C131.531 212.203 132.23 211.346 132.23 210.294C132.23 209.25 131.531 208.393 130.396 208.393C129.269 208.393 128.562 209.25 128.562 210.294C128.562 211.346 129.269 212.203 130.396 212.203ZM130.396 211.602C129.674 211.602 129.269 210.986 129.269 210.294C129.269 209.61 129.674 208.994 130.396 208.994C131.125 208.994 131.523 209.61 131.523 210.294C131.523 210.986 131.125 211.602 130.396 211.602ZM133.088 212.113H133.765V209.588C133.922 209.317 134.381 209.062 134.719 209.062C134.809 209.062 134.884 209.069 134.952 209.084V208.4C134.471 208.4 134.043 208.678 133.765 209.039V208.483H133.088V212.113ZM137.867 212.113H138.543V209.663C138.543 208.739 137.875 208.393 137.085 208.393C136.499 208.393 136.003 208.588 135.597 208.987L135.891 209.452C136.214 209.129 136.567 208.971 136.98 208.971C137.499 208.971 137.867 209.242 137.867 209.693V210.294C137.589 209.971 137.168 209.813 136.68 209.813C136.071 209.813 135.417 210.174 135.417 211.001C135.417 211.797 136.078 212.203 136.68 212.203C137.168 212.203 137.581 212.03 137.867 211.715V212.113ZM137.867 211.316C137.664 211.587 137.311 211.73 136.935 211.73C136.447 211.73 136.101 211.436 136.101 211.008C136.101 210.58 136.447 210.287 136.935 210.287C137.311 210.287 137.664 210.429 137.867 210.7V211.316ZM142.077 212.113H142.754V209.565C142.754 208.799 142.355 208.393 141.589 208.393C141.025 208.393 140.544 208.701 140.304 208.994V208.483H139.627V212.113H140.304V209.52C140.499 209.25 140.882 208.994 141.303 208.994C141.769 208.994 142.077 209.189 142.077 209.791V212.113ZM144.825 212.203C145.178 212.203 145.388 212.105 145.531 211.97L145.358 211.459C145.291 211.534 145.148 211.602 144.99 211.602C144.757 211.602 144.637 211.414 144.637 211.158V209.077H145.373V208.483H144.637V207.491H143.961V208.483H143.359V209.077H143.961V211.309C143.961 211.88 144.254 212.203 144.825 212.203ZM146.453 207.874C146.694 207.874 146.889 207.686 146.889 207.446C146.889 207.205 146.694 207.01 146.453 207.01C146.22 207.01 146.017 207.205 146.017 207.446C146.017 207.686 146.22 207.874 146.453 207.874ZM146.122 212.113H146.799V208.483H146.122V212.113ZM152.288 212.113H152.964V209.49C152.964 208.761 152.603 208.393 151.935 208.393C151.401 208.393 150.92 208.731 150.71 209.069C150.597 208.678 150.274 208.393 149.725 208.393C149.184 208.393 148.703 208.769 148.553 208.994V208.483H147.876V212.113H148.553V209.52C148.733 209.257 149.086 208.994 149.44 208.994C149.898 208.994 150.078 209.272 150.078 209.693V212.113H150.755V209.513C150.928 209.25 151.288 208.994 151.657 208.994C152.1 208.994 152.288 209.272 152.288 209.693V212.113ZM75.5692 228.203C76.5537 228.203 77.1624 227.73 77.5607 227.143L76.9219 226.805C76.6589 227.226 76.1629 227.534 75.5692 227.534C74.5547 227.534 73.7731 226.73 73.7731 225.61C73.7731 224.483 74.5547 223.686 75.5692 223.686C76.1629 223.686 76.6589 223.995 76.9219 224.415L77.5607 224.077C77.1699 223.491 76.5537 223.018 75.5692 223.018C74.1413 223.018 72.999 224.07 72.999 225.61C72.999 227.151 74.1413 228.203 75.5692 228.203ZM79.9033 228.203C81.0381 228.203 81.737 227.346 81.737 226.294C81.737 225.25 81.0381 224.393 79.9033 224.393C78.776 224.393 78.0696 225.25 78.0696 226.294C78.0696 227.346 78.776 228.203 79.9033 228.203ZM79.9033 227.602C79.1818 227.602 78.776 226.986 78.776 226.294C78.776 225.61 79.1818 224.994 79.9033 224.994C80.6323 224.994 81.0306 225.61 81.0306 226.294C81.0306 226.986 80.6323 227.602 79.9033 227.602ZM85.0457 228.113H85.722V225.565C85.722 224.799 85.3237 224.393 84.5572 224.393C83.9935 224.393 83.5126 224.701 83.2721 224.994V224.483H82.5957V228.113H83.2721V225.52C83.4675 225.25 83.8507 224.994 84.2716 224.994C84.7375 224.994 85.0457 225.189 85.0457 225.791V228.113ZM87.7932 228.203C88.1464 228.203 88.3568 228.105 88.4996 227.97L88.3267 227.459C88.2591 227.534 88.1163 227.602 87.9585 227.602C87.7255 227.602 87.6053 227.414 87.6053 227.158V225.077H88.3418V224.483H87.6053V223.491H86.9289V224.483H86.3277V225.077H86.9289V227.309C86.9289 227.88 87.222 228.203 87.7932 228.203ZM91.3303 228.113H92.0066V225.663C92.0066 224.739 91.3378 224.393 90.5487 224.393C89.9625 224.393 89.4665 224.588 89.0607 224.987L89.3538 225.452C89.6769 225.129 90.0301 224.971 90.4435 224.971C90.962 224.971 91.3303 225.242 91.3303 225.693V226.294C91.0522 225.971 90.6314 225.813 90.1429 225.813C89.5341 225.813 88.8803 226.174 88.8803 227.001C88.8803 227.797 89.5417 228.203 90.1429 228.203C90.6314 228.203 91.0447 228.03 91.3303 227.715V228.113ZM91.3303 227.316C91.1274 227.587 90.7741 227.73 90.3984 227.73C89.9099 227.73 89.5642 227.436 89.5642 227.008C89.5642 226.58 89.9099 226.287 90.3984 226.287C90.7741 226.287 91.1274 226.429 91.3303 226.7V227.316ZM92.9703 224.904C92.9703 225.152 93.1807 225.37 93.4362 225.37C93.6917 225.37 93.9097 225.152 93.9097 224.904C93.9097 224.648 93.6917 224.43 93.4362 224.43C93.1807 224.43 92.9703 224.648 92.9703 224.904ZM92.9703 227.722C92.9703 227.978 93.1807 228.195 93.4362 228.195C93.6917 228.195 93.9097 227.978 93.9097 227.722C93.9097 227.467 93.6917 227.256 93.4362 227.256C93.1807 227.256 92.9703 227.467 92.9703 227.722ZM96.6234 225.61C96.6234 226.85 97.1945 228.203 98.5848 228.203C99.9751 228.203 100.546 226.85 100.546 225.61C100.546 224.37 99.9751 223.025 98.5848 223.025C97.1945 223.025 96.6234 224.37 96.6234 225.61ZM99.7797 225.61C99.7797 226.587 99.4716 227.534 98.5848 227.534C97.698 227.534 97.3899 226.587 97.3899 225.61C97.3899 224.633 97.698 223.694 98.5848 223.694C99.4716 223.694 99.7797 224.633 99.7797 225.61ZM101.24 225.61C101.24 226.85 101.811 228.203 103.201 228.203C104.591 228.203 105.163 226.85 105.163 225.61C105.163 224.37 104.591 223.025 103.201 223.025C101.811 223.025 101.24 224.37 101.24 225.61ZM104.396 225.61C104.396 226.587 104.088 227.534 103.201 227.534C102.314 227.534 102.006 226.587 102.006 225.61C102.006 224.633 102.314 223.694 103.201 223.694C104.088 223.694 104.396 224.633 104.396 225.61ZM105.856 225.61C105.856 226.85 106.427 228.203 107.817 228.203C109.208 228.203 109.779 226.85 109.779 225.61C109.779 224.37 109.208 223.025 107.817 223.025C106.427 223.025 105.856 224.37 105.856 225.61ZM109.012 225.61C109.012 226.587 108.704 227.534 107.817 227.534C106.931 227.534 106.622 226.587 106.622 225.61C106.622 224.633 106.931 223.694 107.817 223.694C108.704 223.694 109.012 224.633 109.012 225.61ZM110.472 225.61C110.472 226.85 111.043 228.203 112.434 228.203C113.824 228.203 114.395 226.85 114.395 225.61C114.395 224.37 113.824 223.025 112.434 223.025C111.043 223.025 110.472 224.37 110.472 225.61ZM113.628 225.61C113.628 226.587 113.32 227.534 112.434 227.534C111.547 227.534 111.239 226.587 111.239 225.61C111.239 224.633 111.547 223.694 112.434 223.694C113.32 223.694 113.628 224.633 113.628 225.61ZM115.088 225.61C115.088 226.85 115.66 228.203 117.05 228.203C118.44 228.203 119.011 226.85 119.011 225.61C119.011 224.37 118.44 223.025 117.05 223.025C115.66 223.025 115.088 224.37 115.088 225.61ZM118.245 225.61C118.245 226.587 117.937 227.534 117.05 227.534C116.163 227.534 115.855 226.587 115.855 225.61C115.855 224.633 116.163 223.694 117.05 223.694C117.937 223.694 118.245 224.633 118.245 225.61ZM119.584 226.587H121.388V226.001H119.584V226.587ZM121.958 225.61C121.958 226.85 122.529 228.203 123.919 228.203C125.309 228.203 125.881 226.85 125.881 225.61C125.881 224.37 125.309 223.025 123.919 223.025C122.529 223.025 121.958 224.37 121.958 225.61ZM125.114 225.61C125.114 226.587 124.806 227.534 123.919 227.534C123.032 227.534 122.724 226.587 122.724 225.61C122.724 224.633 123.032 223.694 123.919 223.694C124.806 223.694 125.114 224.633 125.114 225.61Z" fill="#855B35"/>
<path d="M72.999 296.192C72.999 297.432 73.5702 298.785 74.9605 298.785C76.3508 298.785 76.9219 297.432 76.9219 296.192C76.9219 294.952 76.3508 293.607 74.9605 293.607C73.5702 293.607 72.999 294.952 72.999 296.192ZM76.1554 296.192C76.1554 297.169 75.8473 298.116 74.9605 298.116C74.0737 298.116 73.7656 297.169 73.7656 296.192C73.7656 295.215 74.0737 294.276 74.9605 294.276C75.8473 294.276 76.1554 295.215 76.1554 296.192ZM77.6153 296.192C77.6153 297.432 78.1864 298.785 79.5767 298.785C80.967 298.785 81.5382 297.432 81.5382 296.192C81.5382 294.952 80.967 293.607 79.5767 293.607C78.1864 293.607 77.6153 294.952 77.6153 296.192ZM80.7716 296.192C80.7716 297.169 80.4635 298.116 79.5767 298.116C78.6899 298.116 78.3818 297.169 78.3818 296.192C78.3818 295.215 78.6899 294.276 79.5767 294.276C80.4635 294.276 80.7716 295.215 80.7716 296.192ZM82.0938 298.304C82.0938 298.56 82.3043 298.777 82.5598 298.777C82.8153 298.777 83.0332 298.56 83.0332 298.304C83.0332 298.049 82.8153 297.838 82.5598 297.838C82.3043 297.838 82.0938 298.049 82.0938 298.304ZM83.8094 296.192C83.8094 297.432 84.3806 298.785 85.7709 298.785C87.1612 298.785 87.7323 297.432 87.7323 296.192C87.7323 294.952 87.1612 293.607 85.7709 293.607C84.3806 293.607 83.8094 294.952 83.8094 296.192ZM86.9658 296.192C86.9658 297.169 86.6577 298.116 85.7709 298.116C84.8841 298.116 84.576 297.169 84.576 296.192C84.576 295.215 84.8841 294.276 85.7709 294.276C86.6577 294.276 86.9658 295.215 86.9658 296.192ZM88.4257 296.192C88.4257 297.432 88.9968 298.785 90.3871 298.785C91.7774 298.785 92.3486 297.432 92.3486 296.192C92.3486 294.952 91.7774 293.607 90.3871 293.607C88.9968 293.607 88.4257 294.952 88.4257 296.192ZM91.582 296.192C91.582 297.169 91.2739 298.116 90.3871 298.116C89.5003 298.116 89.1922 297.169 89.1922 296.192C89.1922 295.215 89.5003 294.276 90.3871 294.276C91.2739 294.276 91.582 295.215 91.582 296.192ZM93.0419 296.192C93.0419 297.432 93.6131 298.785 95.0034 298.785C96.3937 298.785 96.9648 297.432 96.9648 296.192C96.9648 294.952 96.3937 293.607 95.0034 293.607C93.6131 293.607 93.0419 294.952 93.0419 296.192ZM96.1983 296.192C96.1983 297.169 95.8902 298.116 95.0034 298.116C94.1166 298.116 93.8085 297.169 93.8085 296.192C93.8085 295.215 94.1166 294.276 95.0034 294.276C95.8902 294.276 96.1983 295.215 96.1983 296.192ZM97.5205 298.304C97.5205 298.56 97.7309 298.777 97.9864 298.777C98.2419 298.777 98.4599 298.56 98.4599 298.304C98.4599 298.049 98.2419 297.838 97.9864 297.838C97.7309 297.838 97.5205 298.049 97.5205 298.304ZM99.236 296.192C99.236 297.432 99.8072 298.785 101.198 298.785C102.588 298.785 103.159 297.432 103.159 296.192C103.159 294.952 102.588 293.607 101.198 293.607C99.8072 293.607 99.236 294.952 99.236 296.192ZM102.392 296.192C102.392 297.169 102.084 298.116 101.198 298.116C100.311 298.116 100.003 297.169 100.003 296.192C100.003 295.215 100.311 294.276 101.198 294.276C102.084 294.276 102.392 295.215 102.392 296.192ZM103.852 296.192C103.852 297.432 104.423 298.785 105.814 298.785C107.204 298.785 107.775 297.432 107.775 296.192C107.775 294.952 107.204 293.607 105.814 293.607C104.423 293.607 103.852 294.952 103.852 296.192ZM107.009 296.192C107.009 297.169 106.701 298.116 105.814 298.116C104.927 298.116 104.619 297.169 104.619 296.192C104.619 295.215 104.927 294.276 105.814 294.276C106.701 294.276 107.009 295.215 107.009 296.192ZM108.469 296.192C108.469 297.432 109.04 298.785 110.43 298.785C111.82 298.785 112.391 297.432 112.391 296.192C112.391 294.952 111.82 293.607 110.43 293.607C109.04 293.607 108.469 294.952 108.469 296.192ZM111.625 296.192C111.625 297.169 111.317 298.116 110.43 298.116C109.543 298.116 109.235 297.169 109.235 296.192C109.235 295.215 109.543 294.276 110.43 294.276C111.317 294.276 111.625 295.215 111.625 296.192ZM112.739 298.845H113.258L115.039 293.532H114.52L112.739 298.845ZM115.382 296.192C115.382 297.432 115.953 298.785 117.343 298.785C118.734 298.785 119.305 297.432 119.305 296.192C119.305 294.952 118.734 293.607 117.343 293.607C115.953 293.607 115.382 294.952 115.382 296.192ZM118.538 296.192C118.538 297.169 118.23 298.116 117.343 298.116C116.457 298.116 116.148 297.169 116.148 296.192C116.148 295.215 116.457 294.276 117.343 294.276C118.23 294.276 118.538 295.215 118.538 296.192ZM119.998 296.192C119.998 297.432 120.569 298.785 121.96 298.785C123.35 298.785 123.921 297.432 123.921 296.192C123.921 294.952 123.35 293.607 121.96 293.607C120.569 293.607 119.998 294.952 119.998 296.192ZM123.155 296.192C123.155 297.169 122.846 298.116 121.96 298.116C121.073 298.116 120.765 297.169 120.765 296.192C120.765 295.215 121.073 294.276 121.96 294.276C122.846 294.276 123.155 295.215 123.155 296.192ZM124.614 296.192C124.614 297.432 125.186 298.785 126.576 298.785C127.966 298.785 128.537 297.432 128.537 296.192C128.537 294.952 127.966 293.607 126.576 293.607C125.186 293.607 124.614 294.952 124.614 296.192ZM127.771 296.192C127.771 297.169 127.463 298.116 126.576 298.116C125.689 298.116 125.381 297.169 125.381 296.192C125.381 295.215 125.689 294.276 126.576 294.276C127.463 294.276 127.771 295.215 127.771 296.192ZM130.275 298.695H131.027V293.682H130.365L129.02 295.057L129.464 295.516L130.275 294.667V298.695ZM131.811 297.169H133.615V296.583H131.811V297.169ZM134.185 296.192C134.185 297.432 134.756 298.785 136.146 298.785C137.536 298.785 138.107 297.432 138.107 296.192C138.107 294.952 137.536 293.607 136.146 293.607C134.756 293.607 134.185 294.952 134.185 296.192ZM137.341 296.192C137.341 297.169 137.033 298.116 136.146 298.116C135.259 298.116 134.951 297.169 134.951 296.192C134.951 295.215 135.259 294.276 136.146 294.276C137.033 294.276 137.341 295.215 137.341 296.192ZM138.801 296.192C138.801 297.432 139.372 298.785 140.762 298.785C142.153 298.785 142.724 297.432 142.724 296.192C142.724 294.952 142.153 293.607 140.762 293.607C139.372 293.607 138.801 294.952 138.801 296.192ZM141.957 296.192C141.957 297.169 141.649 298.116 140.762 298.116C139.875 298.116 139.567 297.169 139.567 296.192C139.567 295.215 139.875 294.276 140.762 294.276C141.649 294.276 141.957 295.215 141.957 296.192ZM72.999 312.2C72.999 313.575 73.5627 314.785 74.9981 314.785C76.1028 314.785 76.8017 314.026 76.8017 313.124C76.8017 312.057 76.0427 311.516 75.1408 311.516C74.5246 311.516 73.9835 311.914 73.7656 312.252C73.758 312.2 73.758 312.147 73.758 312.087C73.758 311.155 74.2165 310.276 75.1258 310.276C75.6218 310.276 75.9149 310.464 76.1704 310.757L76.5387 310.186C76.2155 309.84 75.7571 309.607 75.1258 309.607C73.6904 309.607 72.999 310.794 72.999 312.2ZM76.0427 313.147C76.0427 313.59 75.6819 314.116 74.9605 314.116C74.1413 314.116 73.8332 313.417 73.7731 312.831C74.0361 312.433 74.487 312.162 74.953 312.162C75.5467 312.162 76.0427 312.478 76.0427 313.147ZM77.5886 313.996C77.9793 314.484 78.5505 314.785 79.4072 314.785C80.4669 314.785 81.2484 314.139 81.2484 313.109C81.2484 312.08 80.4894 311.501 79.6477 311.501C79.1592 311.501 78.7384 311.704 78.4979 311.944V310.344H80.9178V309.682H77.7464V312.433L78.2875 312.606C78.6181 312.29 78.9789 312.155 79.4147 312.155C80.061 312.155 80.4894 312.538 80.4894 313.139C80.4894 313.688 80.0535 314.116 79.3997 314.116C78.8135 314.116 78.3626 313.891 78.0319 313.485L77.5886 313.996ZM82.058 313.996C82.4488 314.484 83.02 314.785 83.8767 314.785C84.9363 314.785 85.7179 314.139 85.7179 313.109C85.7179 312.08 84.9589 311.501 84.1172 311.501C83.6287 311.501 83.2078 311.704 82.9674 311.944V310.344H85.3872V309.682H82.2158V312.433L82.7569 312.606C83.0876 312.29 83.4483 312.155 83.8842 312.155C84.5305 312.155 84.9589 312.538 84.9589 313.139C84.9589 313.688 84.523 314.116 83.8692 314.116C83.283 314.116 82.8321 313.891 82.5014 313.485L82.058 313.996ZM90.1695 313.169H91.9732V312.583H90.1695V313.169ZM94.6908 314.695H97.1032C98.0275 314.695 98.5536 314.131 98.5536 313.342C98.5536 312.733 98.1177 312.192 97.5841 312.11C98.0425 312.012 98.4559 311.591 98.4559 310.96C98.4559 310.231 97.9373 309.682 97.043 309.682H94.6908V314.695ZM95.4423 311.809V310.344H96.9002C97.4038 310.344 97.6818 310.667 97.6818 311.08C97.6818 311.493 97.4038 311.809 96.9002 311.809H95.4423ZM95.4423 314.033V312.47H96.9378C97.4939 312.47 97.7795 312.831 97.7795 313.244C97.7795 313.733 97.4639 314.033 96.9378 314.033H95.4423ZM101.708 314.695H102.384V312.245C102.384 311.321 101.715 310.975 100.926 310.975C100.34 310.975 99.8439 311.17 99.4381 311.569L99.7312 312.034C100.054 311.711 100.408 311.553 100.821 311.553C101.339 311.553 101.708 311.824 101.708 312.275V312.876C101.43 312.553 101.009 312.395 100.52 312.395C99.9115 312.395 99.2577 312.756 99.2577 313.583C99.2577 314.379 99.919 314.785 100.52 314.785C101.009 314.785 101.422 314.612 101.708 314.297V314.695ZM101.708 313.898C101.505 314.169 101.152 314.312 100.776 314.312C100.287 314.312 99.9416 314.018 99.9416 313.59C99.9416 313.162 100.287 312.869 100.776 312.869C101.152 312.869 101.505 313.011 101.708 313.282V313.898ZM105.918 314.695H106.594V312.147C106.594 311.381 106.196 310.975 105.429 310.975C104.866 310.975 104.385 311.283 104.144 311.576V311.065H103.468V314.695H104.144V312.102C104.34 311.832 104.723 311.576 105.144 311.576C105.61 311.576 105.918 311.771 105.918 312.373V314.695ZM107.44 312.876C107.44 313.966 108.192 314.785 109.289 314.785C109.973 314.785 110.386 314.499 110.649 314.146L110.198 313.733C109.981 314.033 109.687 314.184 109.319 314.184C108.605 314.184 108.147 313.628 108.147 312.876C108.147 312.125 108.605 311.576 109.319 311.576C109.687 311.576 109.981 311.719 110.198 312.027L110.649 311.614C110.386 311.26 109.973 310.975 109.289 310.975C108.192 310.975 107.44 311.786 107.44 312.876ZM113.002 314.785C114.137 314.785 114.836 313.928 114.836 312.876C114.836 311.832 114.137 310.975 113.002 310.975C111.875 310.975 111.169 311.832 111.169 312.876C111.169 313.928 111.875 314.785 113.002 314.785ZM113.002 314.184C112.281 314.184 111.875 313.568 111.875 312.876C111.875 312.192 112.281 311.576 113.002 311.576C113.731 311.576 114.13 312.192 114.13 312.876C114.13 313.568 113.731 314.184 113.002 314.184ZM119.12 314.695H120.06L122.051 309.682H121.194L119.586 313.876L117.985 309.682H117.129L119.12 314.695ZM123.798 314.785C124.933 314.785 125.632 313.928 125.632 312.876C125.632 311.832 124.933 310.975 123.798 310.975C122.671 310.975 121.964 311.832 121.964 312.876C121.964 313.928 122.671 314.785 123.798 314.785ZM123.798 314.184C123.077 314.184 122.671 313.568 122.671 312.876C122.671 312.192 123.077 311.576 123.798 311.576C124.527 311.576 124.925 312.192 124.925 312.876C124.925 313.568 124.527 314.184 123.798 314.184ZM127.49 314.785C127.843 314.785 128.054 314.687 128.196 314.552L128.024 314.041C127.956 314.116 127.813 314.184 127.655 314.184C127.422 314.184 127.302 313.996 127.302 313.74V311.659H128.039V311.065H127.302V310.073H126.626V311.065H126.025V311.659H126.626V313.891C126.626 314.462 126.919 314.785 127.49 314.785ZM130.396 314.785C131.531 314.785 132.23 313.928 132.23 312.876C132.23 311.832 131.531 310.975 130.396 310.975C129.269 310.975 128.562 311.832 128.562 312.876C128.562 313.928 129.269 314.785 130.396 314.785ZM130.396 314.184C129.674 314.184 129.269 313.568 129.269 312.876C129.269 312.192 129.674 311.576 130.396 311.576C131.125 311.576 131.523 312.192 131.523 312.876C131.523 313.568 131.125 314.184 130.396 314.184ZM133.088 314.695H133.765V312.17C133.922 311.899 134.381 311.644 134.719 311.644C134.809 311.644 134.884 311.651 134.952 311.666V310.982C134.471 310.982 134.043 311.26 133.765 311.621V311.065H133.088V314.695ZM137.867 314.695H138.543V312.245C138.543 311.321 137.875 310.975 137.085 310.975C136.499 310.975 136.003 311.17 135.597 311.569L135.891 312.034C136.214 311.711 136.567 311.553 136.98 311.553C137.499 311.553 137.867 311.824 137.867 312.275V312.876C137.589 312.553 137.168 312.395 136.68 312.395C136.071 312.395 135.417 312.756 135.417 313.583C135.417 314.379 136.078 314.785 136.68 314.785C137.168 314.785 137.581 314.612 137.867 314.297V314.695ZM137.867 313.898C137.664 314.169 137.311 314.312 136.935 314.312C136.447 314.312 136.101 314.018 136.101 313.59C136.101 313.162 136.447 312.869 136.935 312.869C137.311 312.869 137.664 313.011 137.867 313.282V313.898ZM142.077 314.695H142.754V312.147C142.754 311.381 142.355 310.975 141.589 310.975C141.025 310.975 140.544 311.283 140.304 311.576V311.065H139.627V314.695H140.304V312.102C140.499 311.832 140.882 311.576 141.303 311.576C141.769 311.576 142.077 311.771 142.077 312.373V314.695ZM144.825 314.785C145.178 314.785 145.388 314.687 145.531 314.552L145.358 314.041C145.291 314.116 145.148 314.184 144.99 314.184C144.757 314.184 144.637 313.996 144.637 313.74V311.659H145.373V311.065H144.637V310.073H143.961V311.065H143.359V311.659H143.961V313.891C143.961 314.462 144.254 314.785 144.825 314.785ZM146.453 310.456C146.694 310.456 146.889 310.268 146.889 310.028C146.889 309.787 146.694 309.592 146.453 309.592C146.22 309.592 146.017 309.787 146.017 310.028C146.017 310.268 146.22 310.456 146.453 310.456ZM146.122 314.695H146.799V311.065H146.122V314.695ZM152.288 314.695H152.964V312.072C152.964 311.343 152.603 310.975 151.935 310.975C151.401 310.975 150.92 311.313 150.71 311.651C150.597 311.26 150.274 310.975 149.725 310.975C149.184 310.975 148.703 311.351 148.553 311.576V311.065H147.876V314.695H148.553V312.102C148.733 311.839 149.086 311.576 149.44 311.576C149.898 311.576 150.078 311.854 150.078 312.275V314.695H150.755V312.095C150.928 311.832 151.288 311.576 151.657 311.576C152.1 311.576 152.288 311.854 152.288 312.275V314.695ZM75.5692 330.785C76.5537 330.785 77.1624 330.312 77.5607 329.725L76.9219 329.387C76.6589 329.808 76.1629 330.116 75.5692 330.116C74.5547 330.116 73.7731 329.312 73.7731 328.192C73.7731 327.065 74.5547 326.268 75.5692 326.268C76.1629 326.268 76.6589 326.577 76.9219 326.997L77.5607 326.659C77.1699 326.073 76.5537 325.6 75.5692 325.6C74.1413 325.6 72.999 326.652 72.999 328.192C72.999 329.733 74.1413 330.785 75.5692 330.785ZM79.9033 330.785C81.0381 330.785 81.737 329.928 81.737 328.876C81.737 327.832 81.0381 326.975 79.9033 326.975C78.776 326.975 78.0696 327.832 78.0696 328.876C78.0696 329.928 78.776 330.785 79.9033 330.785ZM79.9033 330.184C79.1818 330.184 78.776 329.568 78.776 328.876C78.776 328.192 79.1818 327.576 79.9033 327.576C80.6323 327.576 81.0306 328.192 81.0306 328.876C81.0306 329.568 80.6323 330.184 79.9033 330.184ZM85.0457 330.695H85.722V328.147C85.722 327.381 85.3237 326.975 84.5572 326.975C83.9935 326.975 83.5126 327.283 83.2721 327.576V327.065H82.5957V330.695H83.2721V328.102C83.4675 327.832 83.8507 327.576 84.2716 327.576C84.7375 327.576 85.0457 327.771 85.0457 328.373V330.695ZM87.7932 330.785C88.1464 330.785 88.3568 330.687 88.4996 330.552L88.3267 330.041C88.2591 330.116 88.1163 330.184 87.9585 330.184C87.7255 330.184 87.6053 329.996 87.6053 329.74V327.659H88.3418V327.065H87.6053V326.073H86.9289V327.065H86.3277V327.659H86.9289V329.891C86.9289 330.462 87.222 330.785 87.7932 330.785ZM91.3303 330.695H92.0066V328.245C92.0066 327.321 91.3378 326.975 90.5487 326.975C89.9625 326.975 89.4665 327.17 89.0607 327.569L89.3538 328.034C89.6769 327.711 90.0301 327.553 90.4435 327.553C90.962 327.553 91.3303 327.824 91.3303 328.275V328.876C91.0522 328.553 90.6314 328.395 90.1429 328.395C89.5341 328.395 88.8803 328.756 88.8803 329.583C88.8803 330.379 89.5417 330.785 90.1429 330.785C90.6314 330.785 91.0447 330.612 91.3303 330.297V330.695ZM91.3303 329.898C91.1274 330.169 90.7741 330.312 90.3984 330.312C89.9099 330.312 89.5642 330.018 89.5642 329.59C89.5642 329.162 89.9099 328.869 90.3984 328.869C90.7741 328.869 91.1274 329.011 91.3303 329.282V329.898ZM92.9703 327.486C92.9703 327.734 93.1807 327.952 93.4362 327.952C93.6917 327.952 93.9097 327.734 93.9097 327.486C93.9097 327.23 93.6917 327.012 93.4362 327.012C93.1807 327.012 92.9703 327.23 92.9703 327.486ZM92.9703 330.304C92.9703 330.56 93.1807 330.777 93.4362 330.777C93.6917 330.777 93.9097 330.56 93.9097 330.304C93.9097 330.049 93.6917 329.838 93.4362 329.838C93.1807 329.838 92.9703 330.049 92.9703 330.304ZM96.6234 328.192C96.6234 329.432 97.1945 330.785 98.5848 330.785C99.9751 330.785 100.546 329.432 100.546 328.192C100.546 326.952 99.9751 325.607 98.5848 325.607C97.1945 325.607 96.6234 326.952 96.6234 328.192ZM99.7797 328.192C99.7797 329.169 99.4716 330.116 98.5848 330.116C97.698 330.116 97.3899 329.169 97.3899 328.192C97.3899 327.215 97.698 326.276 98.5848 326.276C99.4716 326.276 99.7797 327.215 99.7797 328.192ZM101.24 328.192C101.24 329.432 101.811 330.785 103.201 330.785C104.591 330.785 105.163 329.432 105.163 328.192C105.163 326.952 104.591 325.607 103.201 325.607C101.811 325.607 101.24 326.952 101.24 328.192ZM104.396 328.192C104.396 329.169 104.088 330.116 103.201 330.116C102.314 330.116 102.006 329.169 102.006 328.192C102.006 327.215 102.314 326.276 103.201 326.276C104.088 326.276 104.396 327.215 104.396 328.192ZM105.856 328.192C105.856 329.432 106.427 330.785 107.817 330.785C109.208 330.785 109.779 329.432 109.779 328.192C109.779 326.952 109.208 325.607 107.817 325.607C106.427 325.607 105.856 326.952 105.856 328.192ZM109.012 328.192C109.012 329.169 108.704 330.116 107.817 330.116C106.931 330.116 106.622 329.169 106.622 328.192C106.622 327.215 106.931 326.276 107.817 326.276C108.704 326.276 109.012 327.215 109.012 328.192ZM110.472 328.192C110.472 329.432 111.043 330.785 112.434 330.785C113.824 330.785 114.395 329.432 114.395 328.192C114.395 326.952 113.824 325.607 112.434 325.607C111.043 325.607 110.472 326.952 110.472 328.192ZM113.628 328.192C113.628 329.169 113.32 330.116 112.434 330.116C111.547 330.116 111.239 329.169 111.239 328.192C111.239 327.215 111.547 326.276 112.434 326.276C113.32 326.276 113.628 327.215 113.628 328.192ZM115.088 328.192C115.088 329.432 115.66 330.785 117.05 330.785C118.44 330.785 119.011 329.432 119.011 328.192C119.011 326.952 118.44 325.607 117.05 325.607C115.66 325.607 115.088 326.952 115.088 328.192ZM118.245 328.192C118.245 329.169 117.937 330.116 117.05 330.116C116.163 330.116 115.855 329.169 115.855 328.192C115.855 327.215 116.163 326.276 117.05 326.276C117.937 326.276 118.245 327.215 118.245 328.192ZM119.584 329.169H121.388V328.583H119.584V329.169ZM121.958 328.192C121.958 329.432 122.529 330.785 123.919 330.785C125.309 330.785 125.881 329.432 125.881 328.192C125.881 326.952 125.309 325.607 123.919 325.607C122.529 325.607 121.958 326.952 121.958 328.192ZM125.114 328.192C125.114 329.169 124.806 330.116 123.919 330.116C123.032 330.116 122.724 329.169 122.724 328.192C122.724 327.215 123.032 326.276 123.919 326.276C124.806 326.276 125.114 327.215 125.114 328.192Z" fill="#855B35"/>
<circle cx="42.217" cy="166.064" r="10.5212" fill="#01BDE4"/>
<path d="M38.4594 166.064L39.2516 166.856L41.6568 164.451L41.6568 169.822L42.7773 169.822L42.7773 164.451L45.1824 166.856L45.9746 166.064L42.217 162.307L38.4594 166.064Z" fill="#FBF9BE"/>
<circle cx="42.217" cy="268.271" r="10.5212" fill="#01BDE4"/>
<path d="M45.9746 268.271L45.1824 267.478L42.7773 269.884V264.513H41.6568V269.884L39.2517 267.478L38.4595 268.271L42.2171 272.028L45.9746 268.271Z" fill="#FBF9BE"/>
</g>
<defs>
<linearGradient id="paint0_linear_164_291" x1="202.49" y1="0.537063" x2="-67.0353" y2="549.471" gradientUnits="userSpaceOnUse">
<stop stop-color="white"/>
<stop offset="1" stop-color="#FFF5D5"/>
</linearGradient>
<linearGradient id="paint1_linear_164_291" x1="-19.7832" y1="417.43" x2="-72.7641" y2="50.0571" gradientUnits="userSpaceOnUse">
<stop stop-color="#00A5F0"/>
<stop offset="1" stop-color="#00D7D7"/>
</linearGradient>
<linearGradient id="paint2_linear_164_291" x1="105.908" y1="327.265" x2="106.095" y2="382.313" gradientUnits="userSpaceOnUse">
<stop stop-color="#CCB579" stop-opacity="0"/>
<stop offset="1" stop-color="#CCB579"/>
</linearGradient>
</defs>
</svg>
